<svg width="26" height="27" viewBox="0 0 26 27" fill="none" xmlns="http://www.w3.org/2000/svg">
<path d="M15.8661 21.9034C15.1022 22.5776 14.0988 22.9866 12.9998 22.9866C11.9009 22.9866 10.8975 22.5776 10.1336 21.9034M19.497 14.516V11.0701C19.497 7.47093 16.599 4.57007 12.9998 4.57007C9.4007 4.57007 6.4634 7.34726 6.4634 11.0701V14.4926C6.4634 15.016 6.38182 15.536 6.22179 16.0326L5.42179 18.5151C5.39988 18.5831 5.4488 18.6533 5.51807 18.6533H20.435C20.5082 18.6533 20.5602 18.5819 20.5377 18.5122L19.7323 16.0129C19.5764 15.5292 19.497 15.0241 19.497 14.516Z" stroke="#171E1D" stroke-width="1.5" stroke-linecap="round"/>
<circle cx="18.8195" cy="6.82764" r="4.09534" fill="#00C29F" stroke="white" stroke-width="1.5"/>
</svg>
