<svg width="20" height="21" viewBox="0 0 20 21" fill="none" xmlns="http://www.w3.org/2000/svg">
<path d="M1.6665 3.47304C1.6665 3.00633 1.6665 2.77298 1.75733 2.59472C1.83723 2.43792 1.96471 2.31043 2.12151 2.23054C2.29977 2.13971 2.53313 2.13971 2.99984 2.13971H6.99984C7.46655 2.13971 7.6999 2.13971 7.87816 2.23054C8.03496 2.31043 8.16245 2.43792 8.24234 2.59472C8.33317 2.77298 8.33317 3.00633 8.33317 3.47304V7.47304C8.33317 7.93975 8.33317 8.17311 8.24234 8.35137C8.16245 8.50817 8.03496 8.63565 7.87816 8.71555C7.6999 8.80638 7.46655 8.80638 6.99984 8.80638H2.99984C2.53313 8.80638 2.29977 8.80638 2.12151 8.71555C1.96471 8.63565 1.83723 8.50817 1.75733 8.35137C1.6665 8.17311 1.6665 7.93975 1.6665 7.47304V3.47304Z" stroke="white" stroke-width="1.5"/>
<path d="M1.6665 13.473C1.6665 13.0063 1.6665 12.773 1.75733 12.5947C1.83723 12.4379 1.96471 12.3104 2.12151 12.2305C2.29977 12.1397 2.53313 12.1397 2.99984 12.1397H6.99984C7.46655 12.1397 7.6999 12.1397 7.87816 12.2305C8.03496 12.3104 8.16245 12.4379 8.24234 12.5947C8.33317 12.773 8.33317 13.0063 8.33317 13.473V17.473C8.33317 17.9398 8.33317 18.1731 8.24234 18.3514C8.16245 18.5082 8.03496 18.6357 7.87816 18.7155C7.6999 18.8064 7.46655 18.8064 6.99984 18.8064H2.99984C2.53313 18.8064 2.29977 18.8064 2.12151 18.7155C1.96471 18.6357 1.83723 18.5082 1.75733 18.3514C1.6665 18.1731 1.6665 17.9398 1.6665 17.473V13.473Z" stroke="white" stroke-width="1.5"/>
<path d="M11.6665 3.47304C11.6665 3.00633 11.6665 2.77298 11.7573 2.59472C11.8372 2.43792 11.9647 2.31043 12.1215 2.23054C12.2998 2.13971 12.5331 2.13971 12.9998 2.13971H16.9998C17.4665 2.13971 17.6999 2.13971 17.8782 2.23054C18.035 2.31043 18.1624 2.43792 18.2423 2.59472C18.3332 2.77298 18.3332 3.00633 18.3332 3.47304V7.47304C18.3332 7.93975 18.3332 8.17311 18.2423 8.35137C18.1624 8.50817 18.035 8.63565 17.8782 8.71555C17.6999 8.80638 17.4665 8.80638 16.9998 8.80638H12.9998C12.5331 8.80638 12.2998 8.80638 12.1215 8.71555C11.9647 8.63565 11.8372 8.50817 11.7573 8.35137C11.6665 8.17311 11.6665 7.93975 11.6665 7.47304V3.47304Z" stroke="white" stroke-width="1.5"/>
<path d="M11.6665 13.473C11.6665 13.0063 11.6665 12.773 11.7573 12.5947C11.8372 12.4379 11.9647 12.3104 12.1215 12.2305C12.2998 12.1397 12.5331 12.1397 12.9998 12.1397H16.9998C17.4665 12.1397 17.6999 12.1397 17.8782 12.2305C18.035 12.3104 18.1624 12.4379 18.2423 12.5947C18.3332 12.773 18.3332 13.0063 18.3332 13.473V17.473C18.3332 17.9398 18.3332 18.1731 18.2423 18.3514C18.1624 18.5082 18.035 18.6357 17.8782 18.7155C17.6999 18.8064 17.4665 18.8064 16.9998 18.8064H12.9998C12.5331 18.8064 12.2998 18.8064 12.1215 18.7155C11.9647 18.6357 11.8372 18.5082 11.7573 18.3514C11.6665 18.1731 11.6665 17.9398 11.6665 17.473V13.473Z" stroke="white" stroke-width="1.5"/>
</svg>
