<svg width="77" height="96" viewBox="0 0 77 96" fill="none" xmlns="http://www.w3.org/2000/svg">
<mask id="mask0_934_7579" style="mask-type:alpha" maskUnits="userSpaceOnUse" x="0" y="0" width="77" height="96">
<path d="M38.3804 95.9755C27.2661 93.1769 18.09 86.7994 10.8521 76.8428C3.61416 66.8863 -0.00319625 55.8328 2.11906e-06 43.6822V14.4171L38.3804 0.0244141L76.7609 14.4171V43.6822C76.7609 55.836 73.1435 66.8911 65.9088 76.8476C58.6741 86.8042 49.498 93.1801 38.3804 95.9755Z" fill="#00E377"/>
</mask>
<g mask="url(#mask0_934_7579)">
<path d="M38.3804 95.9755C27.2661 93.1769 18.09 86.7994 10.8521 76.8428C3.61416 66.8863 -0.00319625 55.8328 2.11906e-06 43.6822V14.4171L38.3804 0.0244141L76.7609 14.4171V43.6822C76.7609 55.836 73.1435 66.8911 65.9088 76.8476C58.6741 86.8042 49.498 93.1801 38.3804 95.9755Z" fill="#00E377"/>
<path d="M38.3806 89.545C28.756 87.1215 20.8098 81.5988 14.542 72.9768C8.27426 64.3548 5.14176 54.7828 5.14453 44.2608V18.9184L38.3806 6.45483L71.6166 18.9184V44.2608C71.6166 54.7856 68.4841 64.359 62.2191 72.9809C55.9541 81.6029 48.008 87.1243 38.3806 89.545Z" fill="#00E377"/>
<path d="M5.78859 44.261V44.2608V19.3647L38.3806 7.14268L70.9726 19.3647V44.2608C70.9726 54.6477 67.8842 64.0889 61.6981 72.6023C55.5491 81.0648 47.7799 86.4791 38.3807 88.8805C28.9842 86.4764 21.2148 81.0606 15.063 72.5981C8.87413 64.0847 5.78585 54.645 5.78859 44.261Z" stroke="black" stroke-opacity="0.09" stroke-width="1.28811"/>
<path d="M18.2683 33.3687H38.3942C43.7973 33.3687 48.1774 37.7488 48.1774 43.152C48.1774 48.5551 43.7973 52.9353 38.3941 52.9353H24.2338C20.9392 52.9353 18.2683 50.2644 18.2683 46.9698V33.3687Z" stroke="#373737" stroke-width="5.88773"/>
<path d="M28.5833 43.0647H48.7091C54.1123 43.0647 58.4924 47.4448 58.4924 52.848C58.4924 58.2512 54.1123 62.6313 48.7091 62.6313H38.9407C33.2204 62.6313 28.5833 57.9941 28.5833 52.2739V43.0647Z" stroke="#373737" stroke-width="5.88773"/>
</g>
</svg>
