<svg width="33" height="39" viewBox="0 0 33 39" fill="none" xmlns="http://www.w3.org/2000/svg">
<path d="M10.0261 29.1199H16.4831" stroke="#457EFF" stroke-width="1.5" stroke-linecap="round"/>
<path d="M12.1823 32.3035L20.8503 32.3035" stroke="#457EFF" stroke-width="1.5" stroke-linecap="round"/>
<path d="M12.1823 35.408H16.4089" stroke="#457EFF" stroke-width="1.5" stroke-linecap="round"/>
<path d="M23.53 32.3035H25.6432" stroke="#457EFF" stroke-width="1.5" stroke-linecap="round"/>
<path d="M2.56122 6.78101H26.2253" stroke="#457EFF" stroke-width="1.5" stroke-linecap="round"/>
<path d="M27.0417 16.3244V4.20972C27.0417 2.55286 25.6985 1.20972 24.0417 1.20972H4.54559C2.88874 1.20972 1.54559 2.55286 1.54559 4.20972V21.9343C1.54559 23.5912 2.88874 24.9343 4.54559 24.9343H17.9156" stroke="#457EFF" stroke-width="1.5"/>
<rect x="5.46356" y="10.0681" width="8.55078" height="6.5625" rx="1.25" fill="#D7E9FC" stroke="#457EFF" stroke-width="1.5"/>
<path d="M5.76044 19.6501L14.2954 19.6501" stroke="#457EFF" stroke-width="1.5" stroke-linecap="round"/>
<path d="M19.0647 18.0775V18.0775C18.1092 18.0775 17.3347 17.3029 17.3347 16.3474V11.8406C17.3347 10.736 18.2301 9.84058 19.3347 9.84058H21.5313C22.6359 9.84058 23.5313 10.736 23.5313 11.8406V14.9781" stroke="#457EFF" stroke-width="1.5"/>
<path d="M31.7044 22.3135C31.7044 26.1865 28.5668 29.3254 24.6973 29.3254C20.8278 29.3254 17.6901 26.1865 17.6901 22.3135C17.6901 18.4404 20.8278 15.3015 24.6973 15.3015C28.5668 15.3015 31.7044 18.4404 31.7044 22.3135Z" fill="#D7E9FC" stroke="#457EFF" stroke-width="1.5"/>
<path fill-rule="evenodd" clip-rule="evenodd" d="M23.4053 18.5082C23.3033 19.0491 22.7217 22.096 22.6022 22.7173C22.4827 23.3386 22.9948 23.8955 23.4976 23.8955C24.0004 23.8955 24.0668 23.8955 24.2732 23.8955C24.4796 23.8955 24.7868 24.0406 24.6712 24.5689C24.5555 25.0971 24.4359 25.6406 24.3184 26.1538C24.2008 26.6671 24.7899 26.8741 25.0454 26.4739C25.3008 26.0738 27.2079 23.0196 27.4274 22.6088C27.6468 22.1981 27.2874 21.5629 26.7463 21.5629C26.2052 21.5629 25.9813 21.5629 25.6975 21.5629C25.4137 21.5629 25.3738 21.3601 25.4768 20.9425C25.5799 20.5248 25.7037 19.9784 25.8952 19.1778C26.0867 18.3771 25.315 17.9421 24.9083 17.9421C24.5017 17.9421 24.0645 17.9421 23.9439 17.9421C23.8234 17.9421 23.5073 17.9673 23.4053 18.5082Z" fill="#457EFF"/>
<path d="M7.29559 27.5837L5.76044 29.1208L7.29559 30.656" stroke="#457EFF" stroke-width="1.5" stroke-linecap="round" stroke-linejoin="round"/>
<path d="M19.6667 35.1785L21.2018 36.7156L19.6667 38.2507" stroke="#457EFF" stroke-width="1.5" stroke-linecap="round" stroke-linejoin="round"/>
</svg>
