<svg width="46" height="32" viewBox="0 0 46 32" fill="none" xmlns="http://www.w3.org/2000/svg">
<rect x="1.27887" y="1.17969" width="19.7098" height="19.7098" rx="3.38117" stroke="#457EFF" stroke-width="1.5"/>
<path d="M1.46942 5.7937H17.4446H20.7993" stroke="#457EFF" stroke-width="1.5" stroke-linecap="round"/>
<rect x="25.0114" y="10.571" width="19.7098" height="19.7098" rx="3.38117" stroke="#457EFF" stroke-width="1.5"/>
<path fill-rule="evenodd" clip-rule="evenodd" d="M32.8611 14.8391C32.7116 15.6315 31.8596 20.0952 31.6845 21.0055C31.5095 21.9157 32.2597 22.7316 32.9963 22.7316C33.7329 22.7316 33.8303 22.7316 34.1326 22.7316C34.4349 22.7316 34.885 22.9441 34.7156 23.718C34.5462 24.4919 34.371 25.288 34.1988 26.04C34.0266 26.792 34.8896 27.0952 35.2638 26.5089C35.638 25.9227 38.432 21.4482 38.7535 20.8465C39.075 20.2448 38.5484 19.3142 37.7557 19.3142C36.963 19.3142 36.635 19.3142 36.2192 19.3142C35.8034 19.3142 35.745 19.0172 35.8959 18.4053C36.0468 17.7934 36.2283 16.993 36.5089 15.8199C36.7894 14.6469 35.6588 14.0098 35.0631 14.0098C34.4673 14.0098 33.8268 14.0098 33.6502 14.0098C33.4736 14.0098 33.0106 14.0466 32.8611 14.8391Z" stroke="#457EFF" stroke-width="1.5"/>
<path d="M22.4828 27.0725C20.3801 26.8327 19.0781 25.796 18.4735 23.8754" stroke="#457EFF" stroke-width="1.5" stroke-linecap="round"/>
<path d="M23.8898 4.6183C25.9867 4.90113 27.2667 5.9641 27.8317 7.89624" stroke="#457EFF" stroke-width="1.5" stroke-linecap="round"/>
<rect x="6.2803" y="9.01062" width="5.68703" height="5.79137" rx="1.25" fill="#D7E9FC" stroke="#457EFF" stroke-width="1.5"/>
<circle cx="13.8754" cy="14.8376" r="3.25618" fill="#D7E9FC" stroke="#457EFF" stroke-width="1.5"/>
</svg>
