<svg width="24" height="24" viewBox="0 0 24 24" fill="none" xmlns="http://www.w3.org/2000/svg">
<path d="M1.71973 3.70984V20.2902C1.71973 21.3948 2.61516 22.2902 3.71972 22.2902H20.2801C21.3846 22.2902 22.2801 21.3948 22.2801 20.2902V7.02456C22.2801 6.55894 22.1176 6.10791 21.8207 5.74923L20.256 3.85903L18.8803 2.35835C18.5015 1.94512 17.9666 1.70984 17.406 1.70984H3.71973C2.61516 1.70984 1.71973 2.60527 1.71973 3.70984Z" stroke="#00E377" stroke-width="1.5"/>
<path d="M14.2504 6.89466C14.2504 6.02856 13.1755 5.32729 11.8492 5.32729C10.5232 5.32729 9.44793 6.02896 9.44793 6.89466C9.44793 7.76036 10.1028 8.23794 11.8492 8.23794C13.5955 8.23794 14.4688 8.6857 14.4688 9.80571C14.4688 10.9249 13.296 11.3727 11.8492 11.3727C10.4023 11.3727 9.22949 10.671 9.22949 9.80531M12.0507 4.52124V5.21041M12.0507 12.1787V11.4896" stroke="#00E377" stroke-width="1.5" stroke-linecap="round"/>
<path d="M5.19678 15.0958L18.7705 15.0958" stroke="#00E377" stroke-width="1.5" stroke-linecap="round" stroke-linejoin="round"/>
<path d="M5.19678 18.2505H14.7442" stroke="#00E377" stroke-width="1.5" stroke-linecap="round" stroke-linejoin="round"/>
</svg>
