<svg width="37" height="37" viewBox="0 0 37 37" fill="none" xmlns="http://www.w3.org/2000/svg">
<path d="M7.75396 1.27881C6.03664 1.27881 4.38966 1.96101 3.17534 3.17534C1.96101 4.38966 1.27881 6.03664 1.27881 7.75396V29.2459C1.27881 30.9633 1.96101 32.6102 3.17534 33.8246C4.38966 35.0389 6.03664 35.7211 7.75396 35.7211H29.2459C30.0963 35.7211 30.9383 35.5536 31.7239 35.2282C32.5095 34.9028 33.2233 34.4258 33.8246 33.8246C34.4258 33.2233 34.9028 32.5095 35.2282 31.7239C35.5536 30.9383 35.7211 30.0963 35.7211 29.2459V7.75396C35.7211 6.90363 35.5536 6.06163 35.2282 5.27603C34.9028 4.49042 34.4258 3.77661 33.8246 3.17534C33.2233 2.57406 32.5095 2.09711 31.7239 1.7717C30.9383 1.44629 30.0963 1.27881 29.2459 1.27881H7.75396ZM16.597 6.53126V6.53642H16.6711C16.7687 6.52905 16.8667 6.54255 16.9587 6.57603C17.1218 6.62696 17.2608 6.73531 17.3501 6.88098C17.4394 7.02664 17.4729 7.19975 17.4443 7.3682C17.4314 7.52373 17.3655 7.67012 17.2577 7.78294C17.1499 7.89577 17.0067 7.96821 16.8519 7.98817C16.714 8.01236 16.573 8.01236 16.4351 7.98817C16.2554 7.96412 16.0924 7.87017 15.9815 7.7267C15.8706 7.58323 15.8207 7.40182 15.8427 7.22183C15.8517 7.03055 15.9361 6.85061 16.0775 6.72148C16.2189 6.59235 16.4057 6.52284 16.597 6.53126ZM9.29525 8.61846C9.66565 8.6053 10.0311 8.70629 10.3422 8.90773C10.6534 9.10918 10.895 9.40137 11.0346 9.74472C11.1655 10.0432 11.2447 10.3549 11.2722 10.6798H11.2619C11.3222 11.1999 11.2757 11.7286 11.1241 12.2297C11.0067 12.6274 10.7835 12.9857 10.4783 13.2664C10.2819 13.4438 10.0492 13.5763 9.79647 13.6548C9.54372 13.7333 9.27691 13.756 9.01455 13.7211C8.62 13.6855 8.24401 13.5372 7.93134 13.294C7.88656 13.3319 7.90895 13.3767 7.90895 13.4249V15.1935C7.90895 15.5792 7.90895 15.581 7.51458 15.581H6.84296C6.77704 15.5918 6.70938 15.5833 6.64822 15.5564C6.58707 15.5295 6.53506 15.4854 6.49854 15.4294L6.50542 8.894C6.55415 8.84622 6.61315 8.81021 6.67791 8.78872C6.74268 8.76723 6.8115 8.76083 6.87912 8.77001H7.45431C7.48575 8.76564 7.51775 8.76753 7.54846 8.77556C7.57918 8.78359 7.608 8.79761 7.63328 8.81681C7.65856 8.83601 7.6798 8.86002 7.69579 8.88745C7.71177 8.91488 7.72217 8.9452 7.7264 8.97666C7.73762 9.04176 7.75257 9.10616 7.77118 9.16954C7.77462 9.18102 7.78209 9.18676 7.79357 9.18676C7.84189 9.16224 7.88606 9.13028 7.92445 9.09204C8.31881 8.78206 8.80273 8.61674 9.29353 8.61846H9.29525ZM21.4999 8.62535C21.6572 8.62535 21.8133 8.64085 21.9683 8.67185C22.1232 8.70502 22.2698 8.76929 22.3991 8.86076C22.5285 8.95222 22.6379 9.06899 22.7209 9.20398V9.2212C22.8776 9.12648 23.0429 9.0266 23.2117 8.94049C23.6474 8.71662 24.1347 8.6064 24.6238 8.62879C25.3126 8.6064 25.8861 9.14715 25.9068 9.83427V13.3129C25.9068 13.5919 25.8706 13.6333 25.5899 13.6333H24.6823C24.6453 13.6285 24.6108 13.6118 24.5841 13.5857C24.5574 13.5596 24.5399 13.5255 24.5342 13.4886C24.5255 13.4201 24.5209 13.351 24.5205 13.2819V10.4026C24.5252 10.286 24.513 10.1694 24.4843 10.0564C24.4593 9.96136 24.4049 9.87665 24.3288 9.81446C24.2527 9.75226 24.1588 9.71579 24.0607 9.71028C23.692 9.68979 23.3241 9.76078 22.9895 9.91693C22.9655 9.92338 22.9447 9.93824 22.9308 9.95879C22.9169 9.97935 22.9108 10.0042 22.9137 10.0289V13.3043C22.916 13.3663 22.9126 13.4272 22.9034 13.4869C22.9034 13.5678 22.8345 13.635 22.7519 13.635H21.7995C21.5688 13.635 21.5205 13.5799 21.5205 13.3491V10.4008C21.5204 10.2922 21.5101 10.1838 21.4895 10.0771C21.4681 9.9751 21.4136 9.88304 21.3345 9.81516C21.2554 9.74729 21.1562 9.7074 21.0521 9.70167C20.6782 9.68155 20.3051 9.75556 19.9672 9.91693C19.9432 9.9245 19.9227 9.94057 19.9097 9.96214C19.8967 9.9837 19.8921 10.0093 19.8966 10.034V13.3646C19.8966 13.5919 19.8432 13.6401 19.6124 13.6401H18.7893C18.5688 13.6401 18.5103 13.573 18.5103 13.3646L18.5034 9.04554C18.5034 8.99388 18.5103 8.94336 18.5241 8.894C18.5352 8.85858 18.5575 8.82772 18.5876 8.80599C18.6177 8.78427 18.654 8.77286 18.6911 8.77345H19.4833C19.5866 8.77345 19.6727 8.8475 19.6968 8.94738C19.7313 9.03349 19.7485 9.11959 19.7778 9.20914C19.8415 9.20914 19.8794 9.16781 19.9224 9.14198C20.26 8.91811 20.6371 8.75967 21.0332 8.67529C21.1882 8.64314 21.3437 8.62764 21.4999 8.62879V8.62535ZM29.0772 8.66496C29.393 8.65838 29.7075 8.70615 30.0071 8.80617C30.3766 8.93327 30.6812 9.2008 30.855 9.55083C31.0287 9.90085 31.0576 10.3052 30.9353 10.6764C30.8903 10.8229 30.8166 10.9589 30.7184 11.0766C30.6203 11.1943 30.4996 11.2912 30.3636 11.3618C30.1214 11.4915 29.863 11.5759 29.5886 11.6149C29.1185 11.6907 28.6415 11.6838 28.1731 11.5943C28.1156 11.5815 28.0576 11.5718 27.9991 11.565C27.9735 11.8242 28.046 12.0837 28.2022 12.2921C28.3584 12.5006 28.587 12.643 28.843 12.6913C29.2287 12.767 29.6248 12.767 30.0106 12.6913C30.1914 12.6534 30.3636 12.612 30.5444 12.5707C30.7252 12.5259 30.801 12.5845 30.801 12.7688V13.2286C30.8082 13.2965 30.7908 13.3648 30.7519 13.4211C30.713 13.4773 30.6553 13.5178 30.5892 13.5351C30.3527 13.628 30.1067 13.6944 29.8556 13.7331C29.3837 13.8192 28.8981 13.8141 28.4297 13.7211C28.0446 13.6598 27.6866 13.4847 27.4018 13.2183C27.117 12.9519 26.9184 12.6064 26.8315 12.2263C26.6522 11.5907 26.6594 10.917 26.8522 10.2855H26.8488C27.0726 9.39513 27.8476 8.74762 28.7655 8.6839C28.8688 8.67242 28.9733 8.66668 29.0789 8.66668L29.0772 8.66496ZM15.1194 8.72179C15.2813 8.72179 15.3347 8.77345 15.3485 8.93016C15.3605 9.1437 15.3485 9.36241 15.3485 9.57251C15.3532 9.65886 15.3485 9.74547 15.3347 9.83083C15.3338 9.8759 15.3153 9.91882 15.2831 9.95038C15.2509 9.98193 15.2076 9.9996 15.1625 9.99959C15.0764 10.0053 14.9903 10.0053 14.9042 9.99959C14.4939 9.97273 14.0826 10.0326 13.697 10.1753C13.6109 10.2062 13.6126 10.2665 13.6126 10.3371V13.4817C13.61 13.5204 13.593 13.5567 13.565 13.5835C13.5369 13.6103 13.4998 13.6256 13.461 13.6264C13.4094 13.6287 13.3577 13.6287 13.3061 13.6264V13.6367H12.3589C12.3209 13.6307 12.2861 13.6122 12.2599 13.5841C12.2337 13.556 12.2176 13.52 12.2142 13.4817V9.08515C12.2142 8.79928 12.2401 8.77001 12.5259 8.77001H13.1252C13.1901 8.7601 13.2562 8.77629 13.3091 8.81502C13.362 8.85374 13.3975 8.91187 13.4077 8.97666C13.4513 9.1305 13.4903 9.29123 13.5248 9.45885C13.568 9.4474 13.605 9.41961 13.6281 9.38136C13.7417 9.26999 13.8611 9.16437 13.9863 9.06449C14.3088 8.8143 14.7124 8.69223 15.1194 8.72179ZM16.1596 8.77001C16.4834 8.76312 16.8071 8.76312 17.1309 8.77001C17.2738 8.77001 17.3151 8.81134 17.3289 8.95427V13.263C17.3312 13.3319 17.3278 13.4013 17.3186 13.4714C17.3153 13.5086 17.2987 13.5434 17.2718 13.5694C17.2449 13.5953 17.2095 13.6107 17.1722 13.6126C17.1361 13.6164 17.0998 13.6164 17.0637 13.6126L17.0706 13.6229H16.2061C16.1775 13.6265 16.1486 13.6265 16.12 13.6229C16.0763 13.6234 16.0341 13.6067 16.0026 13.5764C15.971 13.5462 15.9526 13.5047 15.9512 13.461V8.98183C15.9512 8.832 16.0115 8.77862 16.1579 8.77345L16.1596 8.77001ZM28.9635 9.62417C28.7849 9.63287 28.6125 9.69289 28.4671 9.79704C28.3218 9.9012 28.2095 10.0451 28.1438 10.2114C28.0854 10.3503 28.0454 10.4962 28.025 10.6454C28.0181 10.7487 28.0164 10.7504 28.1111 10.7573C28.3522 10.7941 28.5961 10.8119 28.843 10.8107C28.9771 10.8188 29.1117 10.8072 29.2425 10.7763C29.3477 10.7683 29.4484 10.7303 29.5327 10.6669C29.6169 10.6034 29.6812 10.517 29.7178 10.4181C29.7498 10.3132 29.7563 10.2022 29.7367 10.0943C29.7281 10.0094 29.6971 9.92835 29.6469 9.85937C29.5966 9.79039 29.529 9.73597 29.4509 9.70167C29.3449 9.65877 29.2326 9.63375 29.1185 9.62762C29.0669 9.62414 29.0152 9.623 28.9635 9.62417ZM8.84406 9.681C8.56691 9.67907 8.29338 9.74405 8.04672 9.87044C8.00815 9.88528 7.97549 9.91233 7.95373 9.94747C7.93196 9.9826 7.92228 10.0239 7.92617 10.065V12.3141C7.92321 12.35 7.93159 12.386 7.95013 12.4168C7.96867 12.4477 7.99642 12.472 8.0295 12.4863C8.30715 12.6336 8.61981 12.7021 8.93361 12.6844V12.6878C9.145 12.6865 9.3485 12.6074 9.50535 12.4657C9.64982 12.3333 9.7497 12.1594 9.79122 11.968C9.89282 11.5839 9.91866 11.181 9.86871 10.7866C9.8566 10.5678 9.80283 10.3533 9.71028 10.1546C9.65706 10.0365 9.57512 9.93373 9.47194 9.85551C9.36876 9.7773 9.24762 9.72618 9.11959 9.70684C9.02859 9.69085 8.93645 9.68221 8.84406 9.681ZM12.9599 15.6447C13.0022 15.6394 13.045 15.6394 13.0873 15.6447C13.2142 15.6345 13.3415 15.6564 13.4576 15.7084C13.5767 15.7539 13.68 15.8333 13.7546 15.9367C13.8293 16.0401 13.8721 16.1631 13.8778 16.2905C13.894 16.3852 13.8911 16.4823 13.8694 16.5759C13.8477 16.6695 13.8075 16.7579 13.7512 16.8358C13.6949 16.9137 13.6237 16.9796 13.5416 17.0297C13.4596 17.0798 13.3684 17.113 13.2733 17.1274V17.1223C13.1975 17.135 13.1201 17.135 13.0443 17.1223C12.975 17.119 12.906 17.1115 12.8376 17.0999C12.657 17.0609 12.4989 16.9527 12.3972 16.7985C12.2954 16.6443 12.2582 16.4563 12.2935 16.275C12.3082 16.1067 12.3842 15.9497 12.507 15.8338C12.6299 15.718 12.7911 15.6513 12.9599 15.6464V15.6447ZM18.2985 15.6963H19.163C19.3524 15.7015 19.4041 15.7428 19.4041 15.9374V22.4953C19.4041 22.6675 19.349 22.7312 19.1767 22.7312H18.3622C18.3116 22.7314 18.2625 22.7145 18.2228 22.6832C18.1831 22.6519 18.1551 22.6082 18.1435 22.559C18.1301 22.4851 18.1087 22.4129 18.0798 22.3437C18.0229 22.3558 17.9971 22.3954 17.9523 22.4212C17.6881 22.6292 17.3761 22.7679 17.0446 22.8244C16.7131 22.881 16.3728 22.8536 16.0545 22.745C15.8197 22.6687 15.6032 22.5448 15.4186 22.3809C15.234 22.217 15.0852 22.0167 14.9817 21.7926C14.7741 21.3809 14.6667 20.926 14.6682 20.4649C14.6397 19.9764 14.713 19.4873 14.8835 19.0286C15.0523 18.5464 15.4001 18.1469 15.8565 17.9179C16.504 17.6096 17.2618 17.6596 17.8645 18.0488C17.9058 18.0821 17.9529 18.105 18.0057 18.1176V18.1056C18.0367 18.0625 18.0195 18.016 18.0195 17.9713V15.9702C18.0195 15.7342 18.0608 15.6963 18.2985 15.6963ZM27.8166 17.7233C28.3712 17.7257 28.9059 17.9308 29.3198 18.3C29.7337 18.6692 29.9984 19.177 30.0639 19.7278V19.7416H30.0467V19.8553C30.0429 19.8729 30.0437 19.8912 30.0491 19.9085C30.0546 19.9257 30.0644 19.9412 30.0777 19.9534V19.9259L30.0846 19.9396V20.656L30.0708 20.6801V20.6664C30.0329 20.6905 30.0433 20.7249 30.0433 20.7628V20.8506C30.0167 21.3622 29.807 21.8471 29.4527 22.217C29.0983 22.5869 28.6227 22.817 28.1128 22.8655C27.7219 22.919 27.3245 22.8974 26.9418 22.8018C26.6054 22.73 26.2936 22.5719 26.0369 22.343C25.7803 22.1142 25.5876 21.8224 25.478 21.4964C25.1899 20.737 25.1899 19.8983 25.478 19.1389C25.7363 18.3777 26.42 17.8369 27.2207 17.7612C27.4182 17.7279 27.6168 17.7152 27.8166 17.7233ZM22.6434 17.7749C22.9591 17.76 23.2691 17.7985 23.5733 17.8903C24.0899 18.035 24.4791 18.4569 24.5911 18.9804C24.6376 19.2095 24.6376 19.4454 24.5911 19.6744C24.5582 19.8518 24.4842 20.0189 24.375 20.1625C24.2659 20.306 24.1246 20.422 23.9625 20.501C23.6353 20.6646 23.2771 20.7542 22.912 20.7663C22.5017 20.7928 22.0896 20.7668 21.6859 20.6888H21.679C21.6531 20.6795 21.6253 20.6765 21.598 20.6801C21.6095 20.8076 21.6319 20.9339 21.6652 21.059C21.7107 21.2522 21.8138 21.4271 21.9608 21.5605C22.1077 21.6939 22.2917 21.7797 22.4884 21.8064C22.9137 21.8787 23.3494 21.8632 23.7679 21.7599C23.9039 21.7289 24.0314 21.6996 24.1674 21.6618C24.3483 21.6187 24.4292 21.691 24.4292 21.8632V22.3144C24.4407 22.3856 24.424 22.4584 24.3824 22.5173C24.3409 22.5763 24.2779 22.6165 24.207 22.6296C23.7781 22.7921 23.3242 22.879 22.8655 22.8862C22.5527 22.897 22.2398 22.8651 21.9356 22.7915C21.6 22.7183 21.2903 22.5561 21.039 22.3218C20.7878 22.0876 20.6043 21.79 20.5079 21.4603C20.2838 20.7852 20.2742 20.0573 20.4804 19.3765C20.6091 18.9057 20.8924 18.4918 21.2847 18.2014C21.677 17.9109 22.1555 17.7607 22.6434 17.7749ZM12.6551 17.8748H13.5351C13.728 17.8817 13.7848 17.9403 13.7848 18.1331L13.7882 18.1228V22.5469C13.7916 22.5918 13.7773 22.6362 13.7483 22.6706C13.7193 22.7051 13.678 22.7268 13.6333 22.7312H12.5965C12.5514 22.736 12.5061 22.7228 12.4706 22.6944C12.4351 22.666 12.4123 22.6248 12.4071 22.5796V22.5504C12.4037 22.5108 12.4037 22.4711 12.4071 22.4315V18.1228C12.4071 17.9299 12.4622 17.8748 12.6534 17.8748H12.6551ZM7.06683 17.8817H8.12766C8.27576 17.8817 8.34464 17.9799 8.38253 18.109C8.45141 18.3467 8.52374 18.5912 8.59779 18.8254C8.85267 19.6882 9.10237 20.5648 9.35552 21.4293H9.36758L9.47952 21.0676L10.3406 18.1796L10.375 18.0694C10.3927 18.0171 10.4266 17.9718 10.4718 17.9402C10.5171 17.9086 10.5713 17.8923 10.6264 17.8938H11.5771C11.8147 17.8903 11.8646 17.9575 11.7871 18.1796L11.7803 18.1762L11.4014 19.1664L10.1511 22.4247L10.1115 22.5366C10.0891 22.6006 10.0463 22.6554 9.98966 22.6928C9.93305 22.7301 9.86576 22.7478 9.79811 22.7432H8.97666C8.89363 22.7529 8.80994 22.732 8.74118 22.6844C8.67243 22.6369 8.6233 22.566 8.60296 22.4849C8.44797 22.0768 8.28437 21.6583 8.12938 21.2484C7.75281 20.2714 7.37681 19.2898 7.00139 18.3036C6.96485 18.228 6.93767 18.1482 6.92045 18.066C6.90151 17.9403 6.94284 17.8817 7.06683 17.8817ZM22.6468 18.7221C22.4968 18.7157 22.3475 18.7458 22.2117 18.8097C22.0758 18.8735 21.9575 18.9693 21.8667 19.0889C21.7323 19.2926 21.648 19.525 21.6204 19.7674C21.6032 19.8243 21.6325 19.8518 21.6893 19.8553C21.9373 19.8943 22.187 19.9155 22.4384 19.919C22.5683 19.9276 22.6988 19.9177 22.8259 19.8897C22.9388 19.8842 23.0473 19.844 23.1367 19.7747C23.226 19.7054 23.2919 19.6102 23.3253 19.5022C23.3556 19.4224 23.3671 19.3367 23.359 19.2517C23.3509 19.1667 23.3234 19.0847 23.2787 19.0121C23.234 18.9394 23.1731 18.8779 23.1009 18.8324C23.0287 18.7869 22.947 18.7586 22.8621 18.7497C22.8311 18.7497 22.8104 18.7393 22.7777 18.7393L22.6468 18.7221ZM17.2015 18.7755C17.12 18.7708 17.0383 18.772 16.9569 18.7789C16.8211 18.7881 16.6897 18.8314 16.575 18.9049C16.4603 18.9783 16.366 19.0795 16.3008 19.1991C16.2485 19.2961 16.208 19.399 16.1803 19.5057C16.0791 19.8885 16.0522 20.2872 16.101 20.6801C16.1183 20.8971 16.1768 21.1107 16.2733 21.3053C16.4059 21.5601 16.6521 21.7341 16.9397 21.7651C17.2772 21.8129 17.6209 21.7481 17.9179 21.5808C17.9509 21.5662 17.9785 21.5415 17.9968 21.5103C18.015 21.479 18.0229 21.4429 18.0195 21.4069V20.2754H18.0298C18.0298 19.8966 18.016 19.5177 18.0298 19.1354C18.0339 19.0967 18.0247 19.0577 18.0037 19.0248C17.9828 18.992 17.9513 18.9672 17.9144 18.9546C17.6908 18.8489 17.4485 18.7881 17.2015 18.7755ZM27.7425 18.8203C27.6834 18.8189 27.6242 18.8207 27.5652 18.8254C27.4357 18.8342 27.3102 18.874 27.1993 18.9414C27.0884 19.0088 26.9953 19.102 26.928 19.2129C26.8485 19.3381 26.7898 19.4754 26.754 19.6193C26.6777 19.9815 26.6603 20.3537 26.7024 20.7215C26.7242 20.9373 26.7827 21.1428 26.878 21.338C26.9831 21.5808 27.2052 21.7547 27.4636 21.803C27.581 21.8252 27.7012 21.8299 27.82 21.8167C27.9375 21.8055 28.0511 21.7686 28.1528 21.7089C28.2546 21.6491 28.342 21.5677 28.409 21.4706C28.4868 21.3606 28.5456 21.2384 28.5829 21.109L28.5743 21.1262C28.6501 20.8667 28.6788 20.6009 28.6604 20.3288C28.6661 20.2147 28.6661 20.1003 28.6604 19.9861C28.6486 19.7418 28.5895 19.502 28.4865 19.2801C28.4322 19.1678 28.3526 19.0695 28.254 18.993C28.1554 18.9166 28.0405 18.8639 27.9182 18.8392C27.86 18.8299 27.8014 18.8236 27.7425 18.8203ZM29.6059 24.3758C30.0123 24.3781 30.4141 24.4252 30.8113 24.517C30.9216 24.5469 31.0289 24.5871 31.1334 24.6376C31.2044 24.666 31.2662 24.7135 31.3118 24.7749C31.3574 24.8364 31.3851 24.9092 31.3917 24.9854C31.4158 25.1611 31.4215 25.3379 31.4089 25.5158C31.3283 26.573 31.0048 27.5973 30.4635 28.5089L30.4566 28.5158C30.2595 28.8463 30.0172 29.1477 29.7367 29.4113C29.6797 29.4664 29.6108 29.5076 29.5353 29.5318C29.5125 29.5409 29.4878 29.5441 29.4635 29.541C29.4391 29.538 29.416 29.5288 29.3962 29.5143C29.3764 29.4999 29.3606 29.4806 29.3503 29.4584C29.34 29.4361 29.3355 29.4116 29.3372 29.3872C29.3425 29.3223 29.357 29.2585 29.3803 29.1977C29.6045 28.6173 29.8044 28.0279 29.9796 27.4308C30.0772 27.099 30.1478 26.7627 30.1914 26.4217C30.2049 26.2975 30.2049 26.1722 30.1914 26.048C30.1898 25.9454 30.1555 25.846 30.0936 25.7643C30.0317 25.6825 29.9453 25.6226 29.847 25.5933C29.6532 25.5315 29.4524 25.4945 29.2494 25.4831C28.6766 25.4577 28.1026 25.4824 27.5342 25.5572L26.7816 25.6502C26.6989 25.6502 26.6266 25.6502 26.5818 25.5761C26.5647 25.5406 26.5573 25.5012 26.5603 25.4619C26.5634 25.4226 26.5767 25.3847 26.5991 25.3522C26.6514 25.2833 26.7162 25.2249 26.7902 25.18C27.2517 24.8632 27.7684 24.6358 28.3143 24.517C28.7414 24.4321 29.1719 24.385 29.6059 24.3758ZM5.80625 24.6823C5.83538 24.6808 5.86442 24.6868 5.89063 24.6996C5.94535 24.7232 5.99881 24.7496 6.05079 24.7788C8.28484 26.1639 10.7304 27.1743 13.2906 27.7701C15.3766 28.2654 17.5195 28.4803 19.6624 28.409C21.9238 28.3089 24.1607 27.8974 26.3097 27.1863C27.0962 26.9245 27.8677 26.6203 28.6243 26.2736C28.7379 26.2099 28.8713 26.1914 28.998 26.2219C29.0965 26.2479 29.181 26.3115 29.2332 26.3991C29.2853 26.4867 29.3011 26.5913 29.2769 26.6903L29.2528 26.7713V26.7747C29.2033 26.8674 29.1332 26.9475 29.0479 27.0089C28.3291 27.5721 27.5561 28.0625 26.7403 28.4727C25.2019 29.2506 23.561 29.8066 21.8667 30.1242C20.8908 30.2964 19.9075 30.4021 18.9167 30.4411V30.4669H18.1572V30.4463C17.8151 30.4302 17.4753 30.4112 17.1378 30.3894C16.2298 30.3209 15.3283 30.1839 14.4409 29.9796C11.4329 29.2796 8.65156 27.828 6.35732 25.7604C6.14166 25.5682 5.92924 25.3724 5.72014 25.1731C5.67044 25.1241 5.63119 25.0655 5.60476 25.0009C5.58068 24.9458 5.57908 24.8834 5.60031 24.8271C5.62155 24.7708 5.66393 24.7251 5.71842 24.6996C5.74515 24.6865 5.77482 24.6805 5.80452 24.6823H5.80625Z" fill="url(#paint0_linear_2631_2611)"/>
<defs>
<linearGradient id="paint0_linear_2631_2611" x1="34.8798" y1="34.862" x2="-3.61454" y2="-3.78273" gradientUnits="userSpaceOnUse">
<stop stop-color="#0094FF"/>
<stop offset="1" stop-color="#11D4FF"/>
</linearGradient>
</defs>
</svg>
