<svg width="25" height="24" viewBox="0 0 25 24" fill="none" xmlns="http://www.w3.org/2000/svg">
<path d="M20.2775 3.76538H4.72253C3.06568 3.76538 1.72253 5.10853 1.72253 6.76538V17.2345C1.72253 18.8914 3.06568 20.2345 4.72253 20.2345H8.95478H20.2775C21.9344 20.2345 23.2775 18.8914 23.2775 17.2345V6.76538C23.2775 5.10853 21.9344 3.76538 20.2775 3.76538Z" stroke="#A6A6A6" stroke-width="1.5"/>
<path d="M2.40088 15.8977L22.9219 15.8977" stroke="#A6A6A6" stroke-width="1.5" stroke-linecap="round" stroke-linejoin="round"/>
<path d="M7.52686 9.01892C8.26434 9.01892 8.86218 8.42107 8.86218 7.68359C8.86218 6.94611 8.26434 6.34827 7.52686 6.34827C6.78937 6.34827 6.19153 6.94611 6.19153 7.68359C6.19153 8.42107 6.78937 9.01892 7.52686 9.01892Z" stroke="#A6A6A6" stroke-width="1.5"/>
<path d="M10.1975 12.5301C10.1975 13.3596 10.1975 14.0323 7.52686 14.0323C4.8562 14.0323 4.8562 13.3596 4.8562 12.5301C4.8562 11.7005 6.05199 11.0278 7.52686 11.0278C9.00172 11.0278 10.1975 11.7005 10.1975 12.5301Z" stroke="#A6A6A6" stroke-width="1.5"/>
<path d="M16.1456 7.72864H20.3383" stroke="#A6A6A6" stroke-width="1.5" stroke-linecap="round" stroke-linejoin="round"/>
</svg>
