<svg width="37" height="37" viewBox="0 0 37 37" fill="none" xmlns="http://www.w3.org/2000/svg">
<path d="M31.5858 1.6394H5.41451C3.35378 1.6394 1.66772 3.32546 1.66772 5.38618V31.6136C1.66772 33.6744 3.35378 35.3604 5.41451 35.3604H31.5858C33.6465 35.3604 35.3325 33.6744 35.3325 31.6136V5.38618C35.3325 4.39248 34.9378 3.43947 34.2351 2.73681C33.5325 2.03415 32.5795 1.6394 31.5858 1.6394ZM28.6071 27.8294C28.5509 27.8481 28.4759 27.8669 28.4197 27.8669H24.1859C24.0025 27.87 23.8225 27.8181 23.6689 27.7179C23.5153 27.6178 23.3952 27.4739 23.3241 27.3049L18.7156 16.5516C18.6781 16.4392 18.5657 16.383 18.472 16.4205C18.4421 16.4317 18.4149 16.4493 18.3923 16.4719C18.3697 16.4945 18.3522 16.5217 18.3409 16.5516L15.4746 23.3895C15.4184 23.5206 15.4746 23.6517 15.6057 23.7079C15.6432 23.7267 15.6619 23.7267 15.6994 23.7267H18.8467C19.0341 23.7267 19.2214 23.8391 19.2963 24.0264L20.6826 27.0988C20.8138 27.3798 20.6639 27.717 20.3829 27.8481C20.2705 27.8481 20.1956 27.8669 20.1206 27.8669H8.65547C8.37446 27.8669 8.13092 27.6233 8.13092 27.3423C8.13092 27.2674 8.14965 27.2112 8.16839 27.1362L15.4746 9.75118C15.6245 9.37651 15.9992 9.13297 16.3926 9.13297H20.6077C21.0198 9.13297 21.3758 9.37651 21.5257 9.75118L28.8694 27.1362C29.0005 27.3985 28.8881 27.717 28.6071 27.8294Z" fill="#EF1616"/>
</svg>
