<svg width="25" height="24" viewBox="0 0 25 24" fill="none" xmlns="http://www.w3.org/2000/svg">
<path d="M19.5502 22.219C19.5502 20.6632 18.3071 18.4465 16.5726 17.9559M15.0839 22.219C15.0839 20.2456 13.0845 17.7527 10.6176 17.7527C8.15066 17.7527 6.15125 20.2456 6.15125 22.219" stroke="#A6A6A6" stroke-width="1.5" stroke-linecap="round" stroke-linejoin="round"/>
<path d="M10.6174 15.1473C11.8508 15.1473 12.8506 14.1475 12.8506 12.9142C12.8506 11.6808 11.8508 10.681 10.6174 10.681C9.3841 10.681 8.38428 11.6808 8.38428 12.9142C8.38428 14.1475 9.3841 15.1473 10.6174 15.1473Z" stroke="#A6A6A6" stroke-width="1.5" stroke-linecap="round" stroke-linejoin="round"/>
<path d="M15.0836 15.1473C15.6759 15.1473 16.2439 14.9121 16.6627 14.4933C17.0815 14.0745 17.3168 13.5065 17.3168 12.9142C17.3168 12.3219 17.0815 11.7539 16.6627 11.3351C16.2439 10.9163 15.6759 10.681 15.0836 10.681" stroke="#A6A6A6" stroke-width="1.5" stroke-linecap="round" stroke-linejoin="round"/>
<path d="M4.82019 16.7669V5.96405L14.1674 1.78101L20.881 6.6354V16.7669" stroke="#A6A6A6" stroke-width="1.5" stroke-linecap="round" stroke-linejoin="round"/>
<path d="M14.0911 2.04333V7.82723" stroke="#A6A6A6" stroke-width="1.5" stroke-linecap="round" stroke-linejoin="round"/>
</svg>
