<svg width="24" height="24" viewBox="0 0 24 24" fill="none" xmlns="http://www.w3.org/2000/svg">
<path d="M5.02969 0.82959C3.91575 0.82959 2.84744 1.2721 2.05977 2.05977C1.2721 2.84744 0.82959 3.91575 0.82959 5.02969V18.9704C0.82959 20.0844 1.2721 21.1527 2.05977 21.9404C2.84744 22.728 3.91575 23.1705 5.02969 23.1705H18.9704C19.522 23.1705 20.0682 23.0619 20.5777 22.8508C21.0873 22.6397 21.5503 22.3304 21.9404 21.9404C22.3304 21.5503 22.6397 21.0873 22.8508 20.5777C23.0619 20.0682 23.1705 19.522 23.1705 18.9704V5.02969C23.1705 4.47812 23.0619 3.93196 22.8508 3.42238C22.6397 2.9128 22.3304 2.44978 21.9404 2.05977C21.5503 1.66975 21.0873 1.36038 20.5777 1.1493C20.0682 0.938229 19.522 0.82959 18.9704 0.82959H5.02969ZM10.7657 4.23658V4.23993H10.8138C10.8771 4.23515 10.9407 4.24391 11.0003 4.26563C11.1061 4.29866 11.1963 4.36894 11.2542 4.46343C11.3122 4.55792 11.3339 4.6702 11.3153 4.77947C11.3069 4.88035 11.2642 4.9753 11.1943 5.04849C11.1244 5.12167 11.0314 5.16866 10.931 5.18161C10.8416 5.1973 10.7501 5.1973 10.6607 5.18161C10.5441 5.16601 10.4384 5.10507 10.3665 5.01201C10.2945 4.91895 10.2622 4.80127 10.2765 4.68452C10.2823 4.56045 10.337 4.44373 10.4287 4.35997C10.5204 4.27621 10.6416 4.23113 10.7657 4.23658ZM6.02944 5.59044C6.2697 5.58191 6.50678 5.64741 6.70858 5.77808C6.91037 5.90875 7.06714 6.09828 7.15766 6.32099C7.24256 6.51461 7.29394 6.7168 7.31181 6.92755H7.30511C7.34421 7.2649 7.31405 7.60783 7.21575 7.93289C7.13956 8.19083 6.99478 8.42325 6.79686 8.60535C6.66943 8.7204 6.51851 8.80637 6.35456 8.85729C6.19061 8.90821 6.01755 8.92287 5.84737 8.90026C5.59145 8.87717 5.34756 8.78101 5.14474 8.62323C5.1157 8.6478 5.13022 8.67685 5.13022 8.70812V9.85533C5.13022 10.1055 5.13022 10.1067 4.87442 10.1067H4.43877C4.39601 10.1137 4.35212 10.1082 4.31245 10.0907C4.27279 10.0733 4.23905 10.0447 4.21536 10.0084L4.21983 5.76917C4.25143 5.73818 4.2897 5.71482 4.33171 5.70088C4.37372 5.68694 4.41837 5.68279 4.46223 5.68874H4.83532C4.85572 5.68591 4.87647 5.68714 4.89639 5.69235C4.91632 5.69756 4.93501 5.70665 4.95141 5.71911C4.96781 5.73156 4.98159 5.74713 4.99195 5.76492C5.00232 5.78272 5.00907 5.80238 5.01181 5.82279C5.01909 5.86502 5.02878 5.90679 5.04086 5.9479C5.04309 5.95535 5.04793 5.95907 5.05538 5.95907C5.08672 5.94317 5.11537 5.92244 5.14027 5.89763C5.39608 5.69656 5.70997 5.58933 6.02833 5.59044H6.02944ZM13.946 5.59491C14.048 5.59491 14.1493 5.60497 14.2498 5.62507C14.3503 5.6466 14.4453 5.68828 14.5293 5.74761C14.6132 5.80694 14.6842 5.88268 14.7379 5.97024V5.98141C14.8396 5.91997 14.9468 5.85518 15.0563 5.79933C15.3389 5.65412 15.655 5.58263 15.9723 5.59715C16.4191 5.58263 16.7911 5.93338 16.8045 6.37908V8.63551C16.8045 8.81648 16.781 8.84329 16.5989 8.84329H16.0103C15.9862 8.84017 15.9639 8.82934 15.9466 8.81242C15.9292 8.79549 15.9179 8.77339 15.9142 8.74945C15.9085 8.70499 15.9055 8.66023 15.9053 8.61541V6.7477C15.9083 6.67212 15.9004 6.59649 15.8818 6.52318C15.8656 6.46151 15.8303 6.40657 15.7809 6.36623C15.7315 6.32589 15.6707 6.30223 15.607 6.29865C15.3679 6.28536 15.1292 6.33141 14.9122 6.4327C14.8967 6.43688 14.8831 6.44652 14.8741 6.45985C14.8651 6.47318 14.8612 6.48932 14.8631 6.50531V8.62993C14.8645 8.67014 14.8623 8.70961 14.8563 8.74834C14.8563 8.80084 14.8117 8.8444 14.758 8.8444H14.1403C13.9906 8.8444 13.9594 8.80866 13.9594 8.65897V6.74659C13.9593 6.67611 13.9526 6.60579 13.9393 6.53658C13.9253 6.47043 13.89 6.41071 13.8387 6.36669C13.7874 6.32266 13.723 6.29678 13.6555 6.29307C13.413 6.28002 13.171 6.32803 12.9518 6.4327C12.9362 6.4376 12.923 6.44803 12.9145 6.46202C12.9061 6.47601 12.9031 6.49259 12.906 6.50866V8.66903C12.906 8.81648 12.8714 8.84775 12.7217 8.84775H12.1877C12.0447 8.84775 12.0068 8.80419 12.0068 8.66903L12.0023 5.86747C12.0023 5.83396 12.0068 5.80119 12.0157 5.76917C12.0229 5.7462 12.0374 5.72618 12.0569 5.71209C12.0764 5.698 12.1 5.69059 12.1241 5.69098H12.6379C12.7049 5.69098 12.7608 5.73901 12.7764 5.8038C12.7987 5.85965 12.8099 5.91551 12.8289 5.97359C12.8702 5.97359 12.8948 5.94678 12.9227 5.93003C13.1417 5.78481 13.3863 5.68204 13.6432 5.62731C13.7438 5.60646 13.8447 5.5964 13.946 5.59715V5.59491ZM18.861 5.6206C19.0658 5.61634 19.2698 5.64732 19.4642 5.7122C19.7039 5.79465 19.9014 5.96818 20.0141 6.19522C20.1268 6.42227 20.1455 6.68456 20.0663 6.92532C20.0371 7.02034 19.9892 7.10859 19.9256 7.18492C19.8619 7.26125 19.7836 7.32414 19.6954 7.3699C19.5383 7.45405 19.3707 7.50879 19.1927 7.53411C18.8878 7.58326 18.5784 7.57879 18.2745 7.5207C18.2373 7.51245 18.1996 7.50611 18.1617 7.50171C18.1451 7.66987 18.1921 7.83814 18.2934 7.97337C18.3947 8.10859 18.543 8.20096 18.709 8.23226C18.9593 8.28141 19.2162 8.28141 19.4664 8.23226C19.5837 8.20769 19.6954 8.18088 19.8127 8.15407C19.93 8.12502 19.9791 8.163 19.9791 8.28253V8.58078C19.9838 8.62488 19.9725 8.66918 19.9473 8.70566C19.9221 8.74213 19.8846 8.76837 19.8417 8.77961C19.6883 8.83985 19.5287 8.88294 19.3659 8.90807C19.0598 8.96393 18.7448 8.96058 18.441 8.90026C18.1912 8.86048 17.959 8.7469 17.7742 8.57412C17.5895 8.40133 17.4607 8.17724 17.4043 7.93066C17.288 7.51841 17.2927 7.08142 17.4177 6.67175H17.4155C17.5607 6.09423 18.0634 5.67422 18.6588 5.63289C18.7258 5.62545 18.7936 5.62172 18.8621 5.62172L18.861 5.6206ZM9.8073 5.65747C9.9123 5.65747 9.94693 5.69098 9.95586 5.79263C9.96368 5.93114 9.95586 6.07301 9.95586 6.20929C9.9589 6.2653 9.95591 6.32148 9.94693 6.37685C9.94634 6.40608 9.93432 6.43392 9.91343 6.45439C9.89255 6.47486 9.86447 6.48632 9.83522 6.48632C9.77937 6.49004 9.72352 6.49004 9.66767 6.48632C9.40154 6.46889 9.13474 6.50771 8.88462 6.60026C8.82876 6.62036 8.82988 6.65946 8.82988 6.70526V8.74499C8.82821 8.77009 8.81718 8.79365 8.79899 8.81102C8.78079 8.8284 8.75674 8.83831 8.73158 8.83882C8.69809 8.84033 8.66454 8.84033 8.63105 8.83882V8.84552H8.01667C7.99206 8.84163 7.96945 8.82962 7.95245 8.8114C7.93545 8.79319 7.92503 8.76981 7.92284 8.74499V5.89316C7.92284 5.70773 7.93959 5.68874 8.12502 5.68874H8.51376C8.55581 5.68232 8.5987 5.69282 8.63303 5.71794C8.66737 5.74306 8.69035 5.78076 8.69695 5.82279C8.72525 5.92258 8.75057 6.02684 8.77291 6.13556C8.80093 6.12814 8.82496 6.11011 8.83993 6.0853C8.91366 6.01306 8.99111 5.94455 9.07228 5.87976C9.28145 5.71747 9.54325 5.6383 9.8073 5.65747ZM10.482 5.68874C10.692 5.68428 10.902 5.68428 11.112 5.68874C11.2047 5.68874 11.2315 5.71555 11.2405 5.80827V8.60312C11.242 8.6478 11.2397 8.69286 11.2338 8.73828C11.2316 8.76243 11.2209 8.785 11.2034 8.80184C11.186 8.81867 11.163 8.82863 11.1388 8.82988C11.1154 8.83235 11.0918 8.83235 11.0684 8.82988L11.0729 8.83658H10.5122C10.4936 8.83892 10.4748 8.83892 10.4563 8.83658C10.4279 8.83689 10.4006 8.82606 10.3801 8.80643C10.3597 8.7868 10.3477 8.75993 10.3468 8.73158V5.82614C10.3468 5.72896 10.3859 5.69433 10.4809 5.69098L10.482 5.68874ZM18.7872 6.2428C18.6714 6.24844 18.5596 6.28737 18.4653 6.35493C18.371 6.42249 18.2981 6.51581 18.2555 6.62371C18.2176 6.71377 18.1917 6.80841 18.1784 6.90521C18.174 6.97223 18.1729 6.97335 18.2343 6.97782C18.3907 7.00165 18.5489 7.01319 18.709 7.01245C18.7961 7.01768 18.8834 7.01015 18.9682 6.9901C19.0364 6.98495 19.1018 6.96032 19.1564 6.91913C19.2111 6.87794 19.2527 6.82194 19.2765 6.75776C19.2973 6.68973 19.3015 6.61774 19.2888 6.54775C19.2832 6.49269 19.2631 6.4401 19.2305 6.39536C19.1979 6.35062 19.154 6.31532 19.1034 6.29307C19.0346 6.26524 18.9618 6.24901 18.8878 6.24503C18.8543 6.24278 18.8208 6.24204 18.7872 6.2428ZM5.73678 6.27966C5.557 6.27841 5.37958 6.32056 5.21958 6.40254C5.19457 6.41217 5.17338 6.42971 5.15927 6.4525C5.14515 6.47529 5.13887 6.50208 5.14139 6.52876V7.98763C5.13947 8.01092 5.14491 8.03422 5.15693 8.05426C5.16896 8.0743 5.18696 8.09006 5.20841 8.09933C5.38851 8.19487 5.59132 8.23929 5.79486 8.22779V8.23003C5.93198 8.22915 6.06398 8.17786 6.16572 8.08593C6.25943 8.00009 6.32422 7.8873 6.35115 7.7631C6.41706 7.514 6.43382 7.25261 6.40142 6.99681C6.39356 6.85486 6.35868 6.71572 6.29865 6.58685C6.26413 6.51029 6.21098 6.44359 6.14405 6.39286C6.07712 6.34212 5.99855 6.30897 5.9155 6.29642C5.85648 6.28605 5.79671 6.28044 5.73678 6.27966ZM8.40652 10.148C8.43397 10.1446 8.46173 10.1446 8.48918 10.148C8.57144 10.1414 8.65403 10.1556 8.72935 10.1893C8.80663 10.2189 8.8736 10.2703 8.92202 10.3374C8.97044 10.4045 8.99821 10.4842 9.00191 10.5669C9.01241 10.6283 9.01056 10.6913 8.99646 10.752C8.98236 10.8128 8.95629 10.8701 8.91979 10.9206C8.88328 10.9712 8.83707 11.0139 8.78385 11.0464C8.73063 11.0789 8.67147 11.1004 8.60982 11.1098V11.1064C8.56065 11.1147 8.51043 11.1147 8.46126 11.1064C8.41632 11.1043 8.37156 11.0994 8.32721 11.0919C8.21007 11.0666 8.1075 10.9964 8.04151 10.8964C7.97551 10.7964 7.95136 10.6745 7.97422 10.5568C7.98376 10.4477 8.03307 10.3459 8.11277 10.2707C8.19247 10.1955 8.29701 10.1523 8.40652 10.1491V10.148ZM11.8694 10.1815H12.4301C12.553 10.1849 12.5865 10.2117 12.5865 10.3379V14.5916C12.5865 14.7033 12.5508 14.7446 12.4391 14.7446H11.9107C11.8779 14.7448 11.8461 14.7338 11.8203 14.7135C11.7945 14.6932 11.7764 14.6648 11.7688 14.6329C11.7602 14.585 11.7463 14.5382 11.7275 14.4933C11.6906 14.5011 11.6739 14.5268 11.6448 14.5436C11.4735 14.6785 11.2711 14.7684 11.0561 14.8051C10.841 14.8418 10.6203 14.8241 10.4139 14.7536C10.2615 14.7041 10.1211 14.6237 10.0013 14.5174C9.88158 14.4111 9.78509 14.2812 9.71793 14.1359C9.58329 13.8688 9.51363 13.5737 9.51463 13.2746C9.49611 12.9578 9.54366 12.6405 9.65426 12.343C9.76373 12.0302 9.98938 11.7711 10.2854 11.6225C10.7054 11.4225 11.1969 11.4549 11.5879 11.7074C11.6147 11.729 11.6452 11.7439 11.6795 11.7521V11.7443C11.6996 11.7163 11.6884 11.6862 11.6884 11.6571V10.3591C11.6884 10.2061 11.7152 10.1815 11.8694 10.1815ZM18.0433 11.4963C18.4031 11.4978 18.7499 11.6309 19.0183 11.8704C19.2868 12.1099 19.4585 12.4393 19.501 12.7965V12.8055H19.4899V12.8792C19.4874 12.8906 19.4879 12.9025 19.4914 12.9137C19.4949 12.9249 19.5013 12.9349 19.51 12.9428V12.925L19.5144 12.9339V13.3986L19.5055 13.4142V13.4053C19.4809 13.4209 19.4876 13.4433 19.4876 13.4679V13.5248C19.4704 13.8566 19.3344 14.1712 19.1045 14.4111C18.8747 14.651 18.5662 14.8003 18.2354 14.8318C17.9819 14.8665 17.7241 14.8524 17.4758 14.7904C17.2577 14.7439 17.0554 14.6413 16.8889 14.4929C16.7224 14.3444 16.5975 14.1551 16.5263 13.9437C16.3395 13.4511 16.3395 12.9071 16.5263 12.4145C16.6939 11.9208 17.1374 11.57 17.6568 11.5208C17.7849 11.4993 17.9137 11.4911 18.0433 11.4963ZM14.6877 11.5298C14.8925 11.5201 15.0935 11.545 15.2909 11.6046C15.626 11.6985 15.8784 11.9721 15.9511 12.3117C15.9812 12.4603 15.9812 12.6133 15.9511 12.7619C15.9297 12.8769 15.8817 12.9853 15.8109 13.0784C15.7401 13.1716 15.6485 13.2468 15.5433 13.2981C15.3311 13.4042 15.0987 13.4623 14.8619 13.4701C14.5958 13.4873 14.3285 13.4704 14.0666 13.4198H14.0621C14.0453 13.4138 14.0273 13.4119 14.0096 13.4142C14.0171 13.4969 14.0316 13.5788 14.0532 13.66C14.0827 13.7853 14.1496 13.8987 14.2449 13.9853C14.3402 14.0718 14.4596 14.1274 14.5871 14.1448C14.8631 14.1917 15.1457 14.1817 15.4171 14.1146C15.5054 14.0945 15.588 14.0755 15.6763 14.051C15.7936 14.023 15.8461 14.0699 15.8461 14.1817V14.4743C15.8535 14.5205 15.8427 14.5677 15.8157 14.6059C15.7888 14.6441 15.7479 14.6703 15.702 14.6787C15.4237 14.7842 15.1293 14.8405 14.8318 14.8452C14.6288 14.8522 14.4259 14.8315 14.2286 14.7837C14.0109 14.7363 13.81 14.6311 13.647 14.4791C13.4841 14.3272 13.3651 14.1341 13.3025 13.9203C13.1572 13.4824 13.1509 13.0102 13.2847 12.5686C13.3682 12.2632 13.5519 11.9948 13.8064 11.8064C14.0608 11.618 14.3712 11.5206 14.6877 11.5298ZM8.2088 11.5946H8.77961C8.90472 11.599 8.94159 11.637 8.94159 11.7621L8.94382 11.7554V14.6251C8.946 14.6542 8.9367 14.683 8.91791 14.7054C8.89912 14.7277 8.87234 14.7418 8.84329 14.7446H8.17082C8.14152 14.7478 8.11215 14.7392 8.08914 14.7208C8.06612 14.7024 8.05132 14.6756 8.04795 14.6463V14.6274C8.04573 14.6017 8.04573 14.5759 8.04795 14.5503V11.7554C8.04795 11.6303 8.08369 11.5946 8.20769 11.5946H8.2088ZM4.58399 11.599H5.27209C5.36815 11.599 5.41283 11.6627 5.43741 11.7465C5.48209 11.9006 5.52901 12.0593 5.57704 12.2112C5.74236 12.7708 5.90433 13.3394 6.06854 13.9002H6.07636L6.14897 13.6656L6.70749 11.7923L6.72983 11.7208C6.74128 11.6869 6.76329 11.6575 6.79264 11.637C6.82199 11.6165 6.85713 11.6059 6.89292 11.6069H7.50953C7.66368 11.6046 7.69608 11.6482 7.64581 11.7923L7.64134 11.7901L7.39559 12.4324L6.58462 14.5458L6.55892 14.6184C6.54436 14.6599 6.51659 14.6955 6.47987 14.7197C6.44315 14.7439 6.39951 14.7554 6.35562 14.7525H5.82279C5.76893 14.7587 5.71465 14.7451 5.67005 14.7143C5.62545 14.6835 5.59358 14.6375 5.58039 14.5849C5.47986 14.3202 5.37374 14.0487 5.2732 13.7829C5.02894 13.1491 4.78505 12.5124 4.54154 11.8727C4.51784 11.8237 4.50021 11.7719 4.48904 11.7186C4.47675 11.637 4.50356 11.599 4.58399 11.599ZM14.6899 12.1442C14.5926 12.14 14.4958 12.1595 14.4077 12.2009C14.3195 12.2424 14.2428 12.3045 14.1839 12.3821C14.0967 12.5142 14.042 12.665 14.0241 12.8222C14.013 12.8591 14.032 12.8769 14.0688 12.8792C14.2297 12.9045 14.3917 12.9183 14.5547 12.9205C14.639 12.9261 14.7236 12.9197 14.8061 12.9015C14.8793 12.8979 14.9497 12.8719 15.0077 12.8269C15.0656 12.782 15.1083 12.7203 15.13 12.6502C15.1496 12.5984 15.1571 12.5428 15.1519 12.4877C15.1466 12.4326 15.1288 12.3794 15.0998 12.3322C15.0708 12.2851 15.0313 12.2452 14.9845 12.2157C14.9376 12.1862 14.8846 12.1678 14.8295 12.162C14.8094 12.162 14.796 12.1553 14.7748 12.1553L14.6899 12.1442ZM11.1578 12.1788C11.1049 12.1758 11.0519 12.1765 10.9992 12.181C10.911 12.187 10.8258 12.2151 10.7514 12.2627C10.677 12.3104 10.6159 12.376 10.5736 12.4536C10.5397 12.5165 10.5134 12.5832 10.4954 12.6524C10.4298 12.9007 10.4123 13.1593 10.444 13.4142C10.4552 13.555 10.4932 13.6935 10.5557 13.8197C10.6417 13.9851 10.8015 14.0979 10.988 14.118C11.2069 14.149 11.4299 14.107 11.6225 13.9985C11.6439 13.9889 11.6618 13.9729 11.6737 13.9527C11.6855 13.9324 11.6907 13.909 11.6884 13.8856V13.1517H11.6951C11.6951 12.906 11.6862 12.6602 11.6951 12.4123C11.6977 12.3871 11.6918 12.3618 11.6782 12.3405C11.6646 12.3192 11.6442 12.3032 11.6203 12.295C11.4752 12.2264 11.3181 12.1869 11.1578 12.1788ZM17.9953 12.2078C17.9569 12.207 17.9185 12.2081 17.8802 12.2112C17.7962 12.2169 17.7148 12.2427 17.6429 12.2864C17.5709 12.3302 17.5106 12.3906 17.4669 12.4625C17.4153 12.5437 17.3772 12.6328 17.3541 12.7261C17.3046 12.9611 17.2932 13.2025 17.3206 13.4411C17.3347 13.5811 17.3727 13.7144 17.4345 13.841C17.5026 13.9985 17.6467 14.1113 17.8143 14.1426C17.8905 14.157 17.9684 14.16 18.0455 14.1515C18.1217 14.1442 18.1954 14.1203 18.2614 14.0815C18.3274 14.0427 18.3841 13.99 18.4275 13.927C18.478 13.8556 18.5161 13.7763 18.5404 13.6924L18.5348 13.7036C18.5839 13.5353 18.6026 13.3629 18.5906 13.1864C18.5943 13.1123 18.5943 13.0381 18.5906 12.9641C18.583 12.8056 18.5446 12.65 18.4778 12.5061C18.4426 12.4332 18.391 12.3695 18.327 12.3199C18.2631 12.2703 18.1885 12.2361 18.1092 12.2201C18.0714 12.2141 18.0334 12.21 17.9953 12.2078ZM19.2039 15.8114C19.4675 15.8129 19.7282 15.8434 19.9858 15.903C20.0573 15.9224 20.127 15.9485 20.1947 15.9812C20.2408 15.9996 20.2809 16.0305 20.3104 16.0703C20.34 16.1102 20.358 16.1574 20.3623 16.2069C20.3779 16.3208 20.3816 16.4355 20.3734 16.5509C20.3212 17.2366 20.1113 17.901 19.7602 18.4923L19.7557 18.4968C19.6279 18.7112 19.4707 18.9067 19.2888 19.0777C19.2518 19.1134 19.2071 19.1402 19.1581 19.1559C19.1433 19.1618 19.1273 19.1638 19.1115 19.1619C19.0957 19.1599 19.0807 19.1539 19.0679 19.1445C19.055 19.1351 19.0448 19.1227 19.0381 19.1082C19.0314 19.0938 19.0285 19.0779 19.0296 19.062C19.0331 19.02 19.0425 18.9786 19.0576 18.9392C19.203 18.5627 19.3327 18.1803 19.4463 17.7931C19.5096 17.5779 19.5554 17.3597 19.5837 17.1385C19.5925 17.0579 19.5925 16.9766 19.5837 16.8961C19.5827 16.8296 19.5604 16.7651 19.5203 16.7121C19.4801 16.659 19.424 16.6202 19.3603 16.6012C19.2346 16.5611 19.1044 16.5371 18.9727 16.5297C18.6011 16.5132 18.2288 16.5292 17.8601 16.5777L17.3719 16.638C17.3183 16.638 17.2714 16.638 17.2424 16.59C17.2313 16.567 17.2265 16.5414 17.2284 16.5159C17.2304 16.4904 17.239 16.4659 17.2535 16.4448C17.2875 16.4001 17.3295 16.3622 17.3775 16.3331C17.6769 16.1275 18.012 15.9801 18.3661 15.903C18.6431 15.8479 18.9224 15.8174 19.2039 15.8114ZM3.76631 16.0103C3.7852 16.0093 3.80404 16.0131 3.82104 16.0214C3.85654 16.0367 3.89121 16.0539 3.92493 16.0728C5.37404 16.9713 6.96033 17.6267 8.62099 18.0131C9.97413 18.3344 11.3641 18.4738 12.7541 18.4275C14.221 18.3626 15.6719 18.0957 17.0659 17.6344C17.576 17.4647 18.0764 17.2673 18.5672 17.0424C18.6409 17.0011 18.7274 16.9891 18.8096 17.0089C18.8735 17.0257 18.9283 17.067 18.9622 17.1238C18.996 17.1807 19.0062 17.2485 18.9905 17.3127L18.9749 17.3652V17.3675C18.9428 17.4276 18.8973 17.4796 18.842 17.5194C18.3757 17.8847 17.8743 18.2028 17.3451 18.4689C16.3473 18.9734 15.2829 19.3341 14.1839 19.5401C13.5509 19.6518 12.9131 19.7203 12.2704 19.7457V19.7624H11.7778V19.749C11.5558 19.7386 11.3354 19.7263 11.1165 19.7122C10.5275 19.6677 9.94275 19.5788 9.36718 19.4463C7.416 18.9923 5.61191 18.0507 4.12376 16.7095C3.98387 16.5849 3.84608 16.4579 3.71045 16.3286C3.67822 16.2968 3.65276 16.2588 3.63561 16.2169C3.61999 16.1811 3.61896 16.1407 3.63273 16.1042C3.6465 16.0677 3.67399 16.038 3.70934 16.0214C3.72668 16.0129 3.74592 16.0091 3.76519 16.0103H3.76631Z" fill="url(#paint0_linear_2631_2317)"/>
<defs>
<linearGradient id="paint0_linear_2631_2317" x1="22.6248" y1="22.6133" x2="-2.34447" y2="-2.45357" gradientUnits="userSpaceOnUse">
<stop stop-color="#0094FF"/>
<stop offset="1" stop-color="#11D4FF"/>
</linearGradient>
</defs>
</svg>
