<svg width="20" height="21" viewBox="0 0 20 21" fill="none" xmlns="http://www.w3.org/2000/svg">
<path d="M2.5 8.80636H17.5M7.5 4.63969H5.16667C4.23325 4.63969 3.76654 4.63969 3.41002 4.82134C3.09641 4.98113 2.84144 5.2361 2.68166 5.5497C2.5 5.90622 2.5 6.37293 2.5 7.30636V15.3064C2.5 16.2398 2.5 16.7065 2.68166 17.063C2.84144 17.3766 3.09641 17.6316 3.41002 17.7914C3.76654 17.973 4.23325 17.973 5.16667 17.973H14.8333C15.7668 17.973 16.2335 17.973 16.59 17.7914C16.9036 17.6316 17.1586 17.3766 17.3183 17.063C17.5 16.7065 17.5 16.2398 17.5 15.3064V7.30636C17.5 6.37293 17.5 5.90622 17.3183 5.5497C17.1586 5.2361 16.9036 4.98113 16.59 4.82134C16.2335 4.63969 15.7668 4.63969 14.8333 4.63969H12.5M7.5 4.63969H12.5M7.5 4.63969V4.22302C7.5 3.53267 6.94036 2.97302 6.25 2.97302C5.55964 2.97302 5 3.53267 5 4.22302V4.63969M12.5 4.63969V4.22302C12.5 3.53267 13.0596 2.97302 13.75 2.97302C14.4404 2.97302 15 3.53267 15 4.22302V4.63969" stroke="#787878" stroke-width="1.5" stroke-linecap="round"/>
</svg>
