<svg width="24" height="24" viewBox="0 0 24 24" fill="none" xmlns="http://www.w3.org/2000/svg">
<path d="M19.8965 13.578V7.52624C19.8965 6.42168 19.0011 5.52625 17.8965 5.52625H2.88379C1.77922 5.52625 0.883789 6.42168 0.883789 7.52625V16.6836C0.883789 17.7881 1.77922 18.6836 2.88379 18.6836H15.6094" stroke="#00E377" stroke-width="1.5"/>
<path d="M12.5609 10.7893C12.5609 10.0063 11.5892 9.37236 10.3902 9.37236C9.1915 9.37236 8.21944 10.0067 8.21944 10.7893C8.21944 11.5719 8.8115 12.0036 10.3902 12.0036C11.9689 12.0036 12.7584 12.4084 12.7584 13.4209C12.7584 14.4327 11.6982 14.8375 10.3902 14.8375C9.0822 14.8375 8.02197 14.2031 8.02197 13.4205M10.5724 8.64368V9.2667M10.5724 15.5661V14.9431" stroke="#00E377" stroke-width="1.5" stroke-linecap="round"/>
<circle cx="19.4347" cy="17.6272" r="3.68175" stroke="#00E377" stroke-width="1.5"/>
<path d="M19.4346 15.9645V19.2899" stroke="#00E377" stroke-width="1.5" stroke-linecap="round" stroke-linejoin="round"/>
<path d="M21.0974 17.6272L17.772 17.6272" stroke="#00E377" stroke-width="1.5" stroke-linecap="round" stroke-linejoin="round"/>
<path d="M2.37695 2.69116H17.9006" stroke="#00E377" stroke-width="1.5" stroke-linecap="round" stroke-linejoin="round"/>
<path d="M2.37695 21.309H14.632" stroke="#00E377" stroke-width="1.5" stroke-linecap="round" stroke-linejoin="round"/>
</svg>
