<svg width="25" height="24" viewBox="0 0 25 24" fill="none" xmlns="http://www.w3.org/2000/svg">
<path d="M2.21985 3.70984V20.2902C2.21985 21.3948 3.11528 22.2902 4.21985 22.2902H20.7802C21.8848 22.2902 22.7802 21.3948 22.7802 20.2902V7.02456C22.7802 6.55894 22.6177 6.10791 22.3208 5.74923L20.7561 3.85903L19.3804 2.35835C19.0016 1.94512 18.4667 1.70984 17.9061 1.70984H4.21985C3.11528 1.70984 2.21985 2.60527 2.21985 3.70984Z" stroke="#A6A6A6" stroke-width="1.5"/>
<path d="M14.7504 6.89466C14.7504 6.02856 13.6755 5.32729 12.3492 5.32729C11.0232 5.32729 9.94793 6.02896 9.94793 6.89466C9.94793 7.76036 10.6028 8.23794 12.3492 8.23794C14.0955 8.23794 14.9688 8.6857 14.9688 9.80571C14.9688 10.9249 13.796 11.3727 12.3492 11.3727C10.9023 11.3727 9.72949 10.671 9.72949 9.80531M12.5507 4.52124V5.21041M12.5507 12.1787V11.4896" stroke="#A6A6A6" stroke-width="1.5" stroke-linecap="round"/>
<path d="M5.69678 15.0958L19.2705 15.0958" stroke="#A6A6A6" stroke-width="1.5" stroke-linecap="round" stroke-linejoin="round"/>
<path d="M5.69678 18.2505H15.2442" stroke="#A6A6A6" stroke-width="1.5" stroke-linecap="round" stroke-linejoin="round"/>
</svg>
