<svg width="19" height="20" viewBox="0 0 19 20" fill="none" xmlns="http://www.w3.org/2000/svg">
<g clip-path="url(#clip0_639_2683)">
<path d="M16.7874 18.8212C17.0803 19.1141 17.5552 19.1141 17.848 18.8212C18.1409 18.5283 18.1409 18.0534 17.848 17.7605L16.7874 18.8212ZM13.8085 9.09346C13.8085 12.235 11.2618 14.7816 8.12031 14.7816V16.2816C12.0902 16.2816 15.3085 13.0634 15.3085 9.09346H13.8085ZM8.12031 14.7816C4.97881 14.7816 2.43213 12.235 2.43213 9.09346H0.932129C0.932129 13.0634 4.15039 16.2816 8.12031 16.2816V14.7816ZM2.43213 9.09346C2.43213 5.95196 4.97881 3.40527 8.12031 3.40527V1.90527C4.15039 1.90527 0.932129 5.12353 0.932129 9.09346H2.43213ZM8.12031 3.40527C11.2618 3.40527 13.8085 5.95196 13.8085 9.09346H15.3085C15.3085 5.12353 12.0902 1.90527 8.12031 1.90527V3.40527ZM12.1887 14.2225L16.7874 18.8212L17.848 17.7605L13.2493 13.1618L12.1887 14.2225Z" fill="white"/>
</g>
<defs>
<clipPath id="clip0_639_2683">
<rect width="19" height="19" fill="white" transform="translate(0 0.973022)"/>
</clipPath>
</defs>
</svg>
