<svg width="37" height="37" viewBox="0 0 37 37" fill="none" xmlns="http://www.w3.org/2000/svg">
<path d="M30.6736 20.9327V10.5195C30.6736 9.41496 29.7782 8.51953 28.6736 8.51953H3.3623C2.25774 8.51953 1.3623 9.41496 1.3623 10.5195V26.8037C1.3623 27.9083 2.25774 28.8037 3.3623 28.8037H24.0643" stroke="#00E377" stroke-width="1.5"/>
<path d="M19.3645 16.6332C19.3645 15.4262 17.8665 14.4488 16.0179 14.4488C14.17 14.4488 12.6714 15.4267 12.6714 16.6332C12.6714 17.8397 13.5841 18.5054 16.0179 18.5054C18.4517 18.5054 19.6689 19.1294 19.6689 20.6903C19.6689 22.2501 18.0344 22.8742 16.0179 22.8742C14.0015 22.8742 12.3669 21.8963 12.3669 20.6898M16.2988 13.3254V14.2859M16.2988 23.9976V23.0371" stroke="#00E377" stroke-width="1.5" stroke-linecap="round"/>
<circle cx="29.9617" cy="27.1751" r="5.67603" stroke="#00E377" stroke-width="1.5"/>
<path d="M29.9617 24.6118V29.7385" stroke="#00E377" stroke-width="1.5" stroke-linecap="round" stroke-linejoin="round"/>
<path d="M32.5249 27.175L27.3982 27.175" stroke="#00E377" stroke-width="1.5" stroke-linecap="round" stroke-linejoin="round"/>
<path d="M3.66431 4.14868H27.5966" stroke="#00E377" stroke-width="1.5" stroke-linecap="round" stroke-linejoin="round"/>
<path d="M3.66431 32.8511H22.5574" stroke="#00E377" stroke-width="1.5" stroke-linecap="round" stroke-linejoin="round"/>
</svg>
