<svg width="25" height="24" viewBox="0 0 25 24" fill="none" xmlns="http://www.w3.org/2000/svg">
<path d="M11.1388 10C13.3479 10 15.1388 8.20914 15.1388 6C15.1388 3.79086 13.3479 2 11.1388 2C8.92965 2 7.13879 3.79086 7.13879 6C7.13879 8.20914 8.92965 10 11.1388 10Z" stroke="#A6A6A6" stroke-width="1.5"/>
<path d="M19.1388 17.5C19.1388 19.985 19.1388 22 11.1388 22C3.13879 22 3.13879 19.985 3.13879 17.5C3.13879 15.015 6.72079 13 11.1388 13C12.293 13 13.3901 13.1375 14.3812 13.385" stroke="#A6A6A6" stroke-width="1.5" stroke-linecap="round"/>
<path d="M16.6761 13.789L18.3334 15.3636L21.8613 11.8357" stroke="#A6A6A6" stroke-width="1.5" stroke-linecap="round" stroke-linejoin="round"/>
</svg>
