<svg width="24" height="24" viewBox="0 0 24 24" fill="none" xmlns="http://www.w3.org/2000/svg">
<path d="M17.1729 7.97377V4.6698C17.1729 3.01295 15.8298 1.6698 14.1729 1.6698H8.15356C6.49671 1.6698 5.15356 3.01295 5.15356 4.6698V19.3303C5.15356 20.9871 6.49671 22.3303 8.15357 22.3303H14.1729C15.8298 22.3303 17.1729 20.9871 17.1729 19.3303V17.1851" stroke="#00E377" stroke-width="1.5"/>
<path d="M8.66882 19.4705H13.6577" stroke="#00E377" stroke-width="1.5" stroke-linecap="round"/>
<path d="M9.08875 4.37622H9.63745" stroke="#00E377" stroke-width="1.5" stroke-linecap="round"/>
<path d="M11.484 4.37622L13.2377 4.37622" stroke="#00E377" stroke-width="1.5" stroke-linecap="round"/>
<circle cx="16.8975" cy="12.5503" r="4.53667" stroke="#00E377" stroke-width="1.5"/>
<path d="M18.4387 11.6163C18.4387 11.0604 17.7488 10.6103 16.8975 10.6103C16.0464 10.6103 15.3563 11.0606 15.3563 11.6163C15.3563 12.1719 15.7766 12.4784 16.8975 12.4784C18.0184 12.4784 18.5789 12.7658 18.5789 13.4847C18.5789 14.2031 17.8262 14.4905 16.8975 14.4905C15.9688 14.4905 15.2161 14.0401 15.2161 13.4845M17.0268 10.0929V10.5352M17.0268 15.0078V14.5655" stroke="#00E377" stroke-width="1.1" stroke-linecap="round"/>
</svg>
