<svg width="64" height="64" viewBox="0 0 64 64" fill="none" xmlns="http://www.w3.org/2000/svg">
<rect width="64" height="64" rx="10" fill="#EBF3FF"/>
<g clip-path="url(#clip0_2631_1565)">
<path d="M25.0261 41.3896H31.4832" stroke="#457EFF" stroke-width="1.5" stroke-linecap="round"/>
<path d="M27.1824 44.5732L35.8503 44.5732" stroke="#457EFF" stroke-width="1.5" stroke-linecap="round"/>
<path d="M27.1824 47.6777H31.4089" stroke="#457EFF" stroke-width="1.5" stroke-linecap="round"/>
<path d="M38.53 44.5732H40.6433" stroke="#457EFF" stroke-width="1.5" stroke-linecap="round"/>
<path d="M17.5613 19.0508H41.2253" stroke="#457EFF" stroke-width="1.5" stroke-linecap="round"/>
<path d="M42.0417 28.5942V16.4795C42.0417 14.8226 40.6986 13.4795 39.0417 13.4795H19.5457C17.8888 13.4795 16.5457 14.8226 16.5457 16.4795V34.2041C16.5457 35.861 17.8888 37.2041 19.5457 37.2041H32.9157" stroke="#457EFF" stroke-width="1.5"/>
<rect x="20.4636" y="22.3379" width="8.55078" height="6.5625" rx="1.25" fill="#D7E9FC" stroke="#457EFF" stroke-width="1.5"/>
<path d="M20.7605 31.9199L29.2955 31.9199" stroke="#457EFF" stroke-width="1.5" stroke-linecap="round"/>
<path d="M34.0647 30.3472V30.3472C33.1093 30.3472 32.3347 29.5727 32.3347 28.6172V24.1104C32.3347 23.0058 33.2301 22.1104 34.3347 22.1104H36.5314C37.6359 22.1104 38.5314 23.0058 38.5314 24.1104V27.2478" stroke="#457EFF" stroke-width="1.5"/>
<path d="M46.7045 34.5832C46.7045 38.4563 43.5668 41.5952 39.6973 41.5952C35.8278 41.5952 32.6902 38.4563 32.6902 34.5832C32.6902 30.7102 35.8278 27.5713 39.6973 27.5713C43.5668 27.5713 46.7045 30.7102 46.7045 34.5832Z" fill="#D7E9FC" stroke="#457EFF" stroke-width="1.5"/>
<path fill-rule="evenodd" clip-rule="evenodd" d="M38.4054 30.778C38.3033 31.3189 37.7217 34.3658 37.6023 34.9871C37.4828 35.6084 37.9949 36.1653 38.4977 36.1653C39.0004 36.1653 39.0669 36.1653 39.2733 36.1653C39.4796 36.1653 39.7869 36.3104 39.6712 36.8386C39.5556 37.3669 39.436 37.9103 39.3184 38.4236C39.2009 38.9369 39.79 39.1439 40.0454 38.7437C40.3009 38.3436 42.208 35.2893 42.4274 34.8786C42.6469 34.4679 42.2874 33.8327 41.7463 33.8327C41.2053 33.8327 40.9814 33.8327 40.6976 33.8327C40.4137 33.8327 40.3739 33.6299 40.4769 33.2122C40.5799 32.7946 40.7038 32.2482 40.8953 31.4475C41.0868 30.6468 40.315 30.2119 39.9084 30.2119C39.5018 30.2119 39.0645 30.2119 38.944 30.2119C38.8234 30.2119 38.5074 30.2371 38.4054 30.778Z" fill="#457EFF"/>
<path d="M22.2957 39.8535L20.7605 41.3906L22.2957 42.9258" stroke="#457EFF" stroke-width="1.5" stroke-linecap="round" stroke-linejoin="round"/>
<path d="M34.6667 47.4482L36.2019 48.9854L34.6667 50.5205" stroke="#457EFF" stroke-width="1.5" stroke-linecap="round" stroke-linejoin="round"/>
</g>
<defs>
<clipPath id="clip0_2631_1565">
<rect width="30.9088" height="37.041" fill="white" transform="translate(16.5457 13.4795)"/>
</clipPath>
</defs>
</svg>
