<svg width="37" height="37" viewBox="0 0 37 37" fill="none" xmlns="http://www.w3.org/2000/svg">
<path d="M1.36792 4.34085C1.36792 2.7398 2.66583 1.44189 4.26688 1.44189H32.7331C34.3342 1.44189 35.6321 2.7398 35.6321 4.34086V32.8071C35.6321 34.4081 34.3342 35.706 32.7331 35.706H4.26688C2.66583 35.706 1.36792 34.4081 1.36792 32.8071V4.34085Z" fill="black"/>
<path d="M20.3375 6.96828L20.3285 12.1046L20.3194 17.2409L19.8969 16.0486L19.8961 16.0463L19.35 27.4812C19.8869 28.9974 20.1746 29.8068 20.1778 29.81C20.1819 29.8143 20.488 29.8328 20.8577 29.8511C21.9778 29.9067 23.3661 30.0257 24.4191 30.1567C24.663 30.1869 24.8728 30.2025 24.8855 30.1911C24.8981 30.1798 24.9049 24.95 24.9008 18.5694L24.893 6.96828H20.3375ZM12.0979 6.95288V18.5658C12.0979 24.953 12.1042 30.185 12.1118 30.1927C12.1195 30.2003 12.515 30.163 12.9908 30.1097C13.4666 30.0564 14.1243 29.9901 14.4522 29.9624C14.9551 29.9199 16.4566 29.8234 16.6304 29.8223C16.681 29.8221 16.6842 29.5612 16.6916 24.9037L16.6993 19.9852L17.0626 21.0131L17.1911 21.3764L17.737 9.94435L17.5494 9.41413C17.2692 8.62166 16.9888 7.82927 16.7082 7.03697L16.678 6.95288H12.0979Z" fill="#B1060F" stroke="black" stroke-width="0.714111"/>
<path d="M12.0979 6.95288V13.4715L16.6899 25.6527C16.6905 25.3736 16.691 25.2228 16.6916 24.9037L16.6993 19.9852L17.0626 21.0131C19.0849 26.7355 20.1713 29.8036 20.1778 29.81C20.1819 29.8143 20.488 29.8328 20.8577 29.8511C21.9778 29.9067 23.3661 30.0257 24.4191 30.1567C24.663 30.1869 24.8728 30.2025 24.8855 30.1911C24.8941 30.1833 24.8998 27.619 24.9013 24.0015L20.3307 10.8611L20.3285 12.1046L20.3194 17.2409L19.8969 16.0486C19.4839 14.8836 19.2082 14.1045 17.5494 9.41413C17.2692 8.62166 16.9888 7.82927 16.7082 7.03697L16.678 6.95288H12.0979Z" fill="url(#paint0_radial_2631_2448)"/>
<path d="M12.0981 6.95288L16.6994 19.9911V19.9852L17.0627 21.0131C19.085 26.7355 20.1714 29.8036 20.1779 29.81C20.182 29.8143 20.4881 29.8328 20.8578 29.8511C21.978 29.9067 23.3662 30.0257 24.4192 30.1567C24.6619 30.1868 24.8705 30.2022 24.8852 30.1912L20.3194 17.2387V17.2409L19.8968 16.0486C19.4839 14.8836 19.2082 14.1045 17.5494 9.41413C17.1033 8.15284 16.7247 7.08329 16.7081 7.03697L16.678 6.95288H12.0981Z" fill="#E50914"/>
<path d="M20.3375 6.96828L20.3285 12.1046L20.3194 17.2409L19.8969 16.0486L19.8961 16.0463L19.35 27.4812C19.8869 28.9974 20.1746 29.8068 20.1778 29.81C20.1819 29.8143 20.488 29.8328 20.8577 29.8511C21.9778 29.9067 23.3661 30.0257 24.4191 30.1567C24.663 30.1869 24.8728 30.2025 24.8855 30.1911C24.8981 30.1798 24.9049 24.95 24.9008 18.5694L24.893 6.96828H20.3375ZM12.0979 6.95288V18.5658C12.0979 24.953 12.1042 30.185 12.1118 30.1927C12.1195 30.2003 12.515 30.163 12.9908 30.1097C13.4666 30.0564 14.1243 29.9901 14.4522 29.9624C14.9551 29.9199 16.4566 29.8234 16.6304 29.8223C16.681 29.8221 16.6842 29.5612 16.6916 24.9037L16.6993 19.9852L17.0626 21.0131L17.1911 21.3764L17.737 9.94435L17.5494 9.41413C17.2692 8.62166 16.9888 7.82927 16.7082 7.03697L16.678 6.95288H12.0979Z" fill="#B1060F" stroke="black" stroke-width="0.714111"/>
<path d="M12.0979 6.95288V13.4715L16.6899 25.6527C16.6905 25.3736 16.691 25.2228 16.6916 24.9037L16.6993 19.9852L17.0626 21.0131C19.0849 26.7355 20.1713 29.8036 20.1778 29.81C20.1819 29.8143 20.488 29.8328 20.8577 29.8511C21.9778 29.9067 23.3661 30.0257 24.4191 30.1567C24.663 30.1869 24.8728 30.2025 24.8855 30.1911C24.8941 30.1833 24.8998 27.619 24.9013 24.0015L20.3307 10.8611L20.3285 12.1046L20.3194 17.2409L19.8969 16.0486C19.4839 14.8836 19.2082 14.1045 17.5494 9.41413C17.2692 8.62166 16.9888 7.82927 16.7082 7.03697L16.678 6.95288H12.0979Z" fill="url(#paint1_radial_2631_2448)"/>
<path d="M12.0981 6.95288L16.6994 19.9911V19.9852L17.0627 21.0131C19.085 26.7355 20.1714 29.8036 20.1779 29.81C20.182 29.8143 20.4881 29.8328 20.8578 29.8511C21.978 29.9067 23.3662 30.0257 24.4192 30.1567C24.6619 30.1868 24.8705 30.2022 24.8852 30.1912L20.3194 17.2387V17.2409L19.8968 16.0486C19.4839 14.8836 19.2082 14.1045 17.5494 9.41413C17.1033 8.15284 16.7247 7.08329 16.7081 7.03697L16.678 6.95288H12.0981Z" fill="#E50914"/>
<defs>
<radialGradient id="paint0_radial_2631_2448" cx="0" cy="0" r="1" gradientUnits="userSpaceOnUse" gradientTransform="translate(631.014 637.244) scale(901.845 901.854)">
<stop/>
<stop offset="1" stop-opacity="0"/>
</radialGradient>
<radialGradient id="paint1_radial_2631_2448" cx="0" cy="0" r="1" gradientUnits="userSpaceOnUse" gradientTransform="translate(631.014 637.244) scale(901.845 901.854)">
<stop/>
<stop offset="1" stop-opacity="0"/>
</radialGradient>
</defs>
</svg>
