<svg width="37" height="37" viewBox="0 0 37 37" fill="none" xmlns="http://www.w3.org/2000/svg">
<path d="M18.4999 1.48999C9.10564 1.48999 1.48999 9.10577 1.48999 18.4999C1.48999 27.8947 9.10577 35.5098 18.4999 35.5098C27.8948 35.5098 35.5098 27.8947 35.5098 18.4999C35.5098 9.10644 27.8948 1.49092 18.4996 1.49092L18.4999 1.48999ZM26.3004 26.0233C25.9957 26.523 25.3416 26.6814 24.8419 26.3747C20.8482 23.9352 15.8207 23.3827 9.89979 24.7355C9.62561 24.7979 9.33786 24.7489 9.09982 24.5992C8.86177 24.4495 8.69293 24.2114 8.63043 23.9372C8.5993 23.8015 8.59524 23.661 8.61848 23.5237C8.64172 23.3864 8.6918 23.255 8.76586 23.1371C8.83991 23.0192 8.93649 22.9171 9.05007 22.8365C9.16365 22.756 9.292 22.6986 9.42777 22.6677C15.9075 21.1873 21.4653 21.8247 25.949 24.5648C26.4487 24.8716 26.6071 25.5236 26.3004 26.0233ZM28.3824 21.3917C27.9983 22.0156 27.1818 22.2127 26.5583 21.8288C21.9861 19.0184 15.0164 18.2045 9.6085 19.8461C8.9071 20.0579 8.16638 19.6627 7.95349 18.9625C7.74219 18.2611 8.13767 17.5217 8.83787 17.3085C15.0153 15.434 22.695 16.342 27.9457 19.5686C28.5692 19.9526 28.7663 20.769 28.3824 21.3917ZM28.5611 16.5687C23.0789 13.3124 14.034 13.0129 8.79986 14.6017C7.95933 14.8566 7.07043 14.382 6.81582 13.5415C6.56107 12.7006 7.03508 11.8123 7.87628 11.5568C13.8846 9.73275 23.8732 10.0853 30.1848 13.8323C30.9425 14.2809 31.1902 15.2574 30.7413 16.0123C30.2945 16.7685 29.3154 17.0176 28.5619 16.5687H28.5611Z" fill="#1ED760"/>
</svg>
