<svg width="24" height="24" viewBox="0 0 24 24" fill="none" xmlns="http://www.w3.org/2000/svg">
<path d="M12 0.966553C5.90643 0.966553 0.966553 5.90652 0.966553 12C0.966553 18.0939 5.90652 23.0334 12 23.0334C18.094 23.0334 23.0334 18.0939 23.0334 12C23.0334 5.90695 18.094 0.967156 11.9998 0.967156L12 0.966553ZM17.0598 16.8801C16.8621 17.2042 16.4379 17.3069 16.1138 17.108C13.5232 15.5256 10.2621 15.1672 6.42156 16.0447C6.24371 16.0852 6.05706 16.0534 5.90266 15.9563C5.74825 15.8592 5.63873 15.7047 5.59819 15.5269C5.578 15.4389 5.57536 15.3477 5.59044 15.2587C5.60551 15.1696 5.638 15.0844 5.68603 15.0079C5.73407 14.9315 5.79672 14.8652 5.87039 14.8129C5.94406 14.7607 6.02731 14.7235 6.11538 14.7035C10.3184 13.7432 13.9235 14.1566 16.8319 15.934C17.156 16.133 17.2587 16.556 17.0598 16.8801ZM18.4103 13.8758C18.1611 14.2805 17.6315 14.4083 17.2271 14.1593C14.2613 12.3363 9.74047 11.8084 6.23261 12.8732C5.77765 13.0106 5.29718 12.7542 5.15909 12.3001C5.02203 11.8451 5.27856 11.3655 5.73274 11.2272C9.73969 10.0113 14.7211 10.6003 18.127 12.6932C18.5315 12.9423 18.6593 13.4718 18.4103 13.8758ZM18.5262 10.7474C14.9702 8.63514 9.1032 8.44085 5.70809 9.47144C5.16288 9.63677 4.5863 9.32896 4.42114 8.78375C4.2559 8.23828 4.56337 7.66213 5.10901 7.49637C9.00632 6.31321 15.4854 6.54189 19.5794 8.97235C20.0709 9.26336 20.2316 9.89675 19.9404 10.3864C19.6506 10.8769 19.0155 11.0385 18.5267 10.7474H18.5262Z" fill="#1ED760"/>
</svg>
