<svg width="24" height="24" viewBox="0 0 24 24" fill="none" xmlns="http://www.w3.org/2000/svg">
<path d="M0.887329 3.83426C0.887329 2.23321 2.18524 0.935303 3.78629 0.935303H20.2138C21.8148 0.935303 23.1127 2.23321 23.1127 3.83426V20.2617C23.1127 21.8628 21.8148 23.1607 20.2138 23.1607H3.78629C2.18524 23.1607 0.887329 21.8628 0.887329 20.2617V3.83426Z" fill="black"/>
<path d="M13.192 4.52L13.1862 7.85167L13.1803 11.1833L12.9062 10.4099L12.9057 10.4085L12.5515 17.8257C12.8998 18.8092 13.0863 19.3342 13.0884 19.3363C13.0911 19.339 13.2896 19.351 13.5294 19.3629C14.256 19.399 15.1565 19.4762 15.8396 19.5611C15.9977 19.5807 16.1338 19.5908 16.1421 19.5834C16.1502 19.5761 16.1547 16.1838 16.152 12.0451L16.1469 4.52H13.192ZM7.84741 4.51001V12.0427C7.84741 16.1858 7.85149 19.5795 7.85644 19.5845C7.86139 19.5894 8.11795 19.5652 8.42662 19.5306C8.7352 19.4961 9.16181 19.4531 9.3745 19.4351C9.70071 19.4076 10.6747 19.3449 10.7874 19.3442C10.8202 19.3441 10.8223 19.1749 10.8271 16.1538L10.8321 12.9634L11.0677 13.6302L11.1511 13.8658L11.5052 6.45042L11.3835 6.1065C11.2018 5.59246 11.0199 5.07848 10.8378 4.56455L10.8183 4.51001H7.84741Z" fill="#B1060F" stroke="black" stroke-width="0.714111"/>
<path d="M7.84741 4.51001V8.73833L10.826 16.6396C10.8264 16.4586 10.8267 16.3608 10.8271 16.1538L10.8321 12.9634L11.0677 13.6302C12.3795 17.342 13.0842 19.3321 13.0884 19.3363C13.0911 19.339 13.2896 19.351 13.5294 19.3629C14.256 19.399 15.1565 19.4762 15.8396 19.5611C15.9977 19.5807 16.1338 19.5908 16.1421 19.5834C16.1476 19.5784 16.1514 17.915 16.1523 15.5686L13.1876 7.04509L13.1862 7.85167L13.1803 11.1833L12.9062 10.4099C12.6383 9.65425 12.4595 9.14887 11.3835 6.1065C11.2018 5.59246 11.0199 5.07848 10.8378 4.56455L10.8183 4.51001H7.84741Z" fill="url(#paint0_radial_2631_2261)"/>
<path d="M7.84741 4.51001L10.832 12.9672V12.9634L11.0677 13.6302C12.3794 17.342 13.0841 19.3321 13.0883 19.3363C13.091 19.339 13.2896 19.351 13.5293 19.3629C14.2559 19.399 15.1564 19.4762 15.8395 19.5611C15.9969 19.5807 16.1322 19.5906 16.1417 19.5835L13.1801 11.1819V11.1833L12.906 10.4099C12.6382 9.65425 12.4593 9.14887 11.3834 6.1065C11.094 5.28836 10.8484 4.5946 10.8377 4.56455L10.8181 4.51001H7.84741Z" fill="#E50914"/>
<path d="M13.192 4.52L13.1862 7.85167L13.1803 11.1833L12.9062 10.4099L12.9057 10.4085L12.5515 17.8257C12.8998 18.8092 13.0863 19.3342 13.0884 19.3363C13.0911 19.339 13.2896 19.351 13.5294 19.3629C14.256 19.399 15.1565 19.4762 15.8396 19.5611C15.9977 19.5807 16.1338 19.5908 16.1421 19.5834C16.1502 19.5761 16.1547 16.1838 16.152 12.0451L16.1469 4.52H13.192ZM7.84741 4.51001V12.0427C7.84741 16.1858 7.85149 19.5795 7.85644 19.5845C7.86139 19.5894 8.11795 19.5652 8.42662 19.5306C8.7352 19.4961 9.16181 19.4531 9.3745 19.4351C9.70071 19.4076 10.6747 19.3449 10.7874 19.3442C10.8202 19.3441 10.8223 19.1749 10.8271 16.1538L10.8321 12.9634L11.0677 13.6302L11.1511 13.8658L11.5052 6.45042L11.3835 6.1065C11.2018 5.59246 11.0199 5.07848 10.8378 4.56455L10.8183 4.51001H7.84741Z" fill="#B1060F" stroke="black" stroke-width="0.714111"/>
<path d="M7.84741 4.51001V8.73833L10.826 16.6396C10.8264 16.4586 10.8267 16.3608 10.8271 16.1538L10.8321 12.9634L11.0677 13.6302C12.3795 17.342 13.0842 19.3321 13.0884 19.3363C13.0911 19.339 13.2896 19.351 13.5294 19.3629C14.256 19.399 15.1565 19.4762 15.8396 19.5611C15.9977 19.5807 16.1338 19.5908 16.1421 19.5834C16.1476 19.5784 16.1514 17.915 16.1523 15.5686L13.1876 7.04509L13.1862 7.85167L13.1803 11.1833L12.9062 10.4099C12.6383 9.65425 12.4595 9.14887 11.3835 6.1065C11.2018 5.59246 11.0199 5.07848 10.8378 4.56455L10.8183 4.51001H7.84741Z" fill="url(#paint1_radial_2631_2261)"/>
<path d="M7.84741 4.51001L10.832 12.9672V12.9634L11.0677 13.6302C12.3794 17.342 13.0841 19.3321 13.0883 19.3363C13.091 19.339 13.2896 19.351 13.5293 19.3629C14.2559 19.399 15.1564 19.4762 15.8395 19.5611C15.9969 19.5807 16.1322 19.5906 16.1417 19.5835L13.1801 11.1819V11.1833L12.906 10.4099C12.6382 9.65425 12.4593 9.14887 11.3834 6.1065C11.094 5.28836 10.8484 4.5946 10.8377 4.56455L10.8181 4.51001H7.84741Z" fill="#E50914"/>
<defs>
<radialGradient id="paint0_radial_2631_2261" cx="0" cy="0" r="1" gradientUnits="userSpaceOnUse" gradientTransform="translate(409.306 413.348) scale(584.981 584.986)">
<stop/>
<stop offset="1" stop-opacity="0"/>
</radialGradient>
<radialGradient id="paint1_radial_2631_2261" cx="0" cy="0" r="1" gradientUnits="userSpaceOnUse" gradientTransform="translate(409.306 413.348) scale(584.981 584.986)">
<stop/>
<stop offset="1" stop-opacity="0"/>
</radialGradient>
</defs>
</svg>
