<svg width="24" height="24" viewBox="0 0 24 24" fill="none" xmlns="http://www.w3.org/2000/svg">
<path d="M12 20.5717C13.2706 20.5717 14.5288 20.3214 15.7027 19.8351C16.8766 19.3489 17.9432 18.6362 18.8416 17.7378C19.7401 16.8393 20.4528 15.7727 20.939 14.5988C21.4253 13.4249 21.6755 12.1667 21.6755 10.8961C21.6755 9.62551 21.4253 8.36734 20.939 7.19345C20.4528 6.01956 19.7401 4.95294 18.8416 4.05448C17.9432 3.15602 16.8766 2.44333 15.7027 1.95709C14.5288 1.47085 13.2706 1.22058 12 1.22058M12 20.5717C10.7294 20.5717 9.47122 20.3214 8.29733 19.8351M12 20.5717C14.9682 20.5717 16.2368 15.0211 16.2368 10.8961C16.2368 6.77111 14.9682 1.22058 12 1.22058M12 20.5717C9.03176 20.5717 7.76319 15.0211 7.76319 10.8961C7.76319 6.77111 9.03176 1.22058 12 1.22058M12 1.22058C10.7294 1.22058 9.47122 1.47085 8.29733 1.95709C7.12344 2.44333 6.05682 3.15602 5.15836 4.05448C4.25991 4.95294 3.54721 6.01956 3.06097 7.19345C2.57473 8.36734 2.32446 9.62551 2.32446 10.8961C2.32446 12.1667 2.57473 13.4249 3.06097 14.5988C3.21579 14.9725 3.39356 15.3354 3.59297 15.6855M2.86199 7.67094H21.138M2.86199 14.1213H21.138" stroke="#00E377" stroke-width="1.5" stroke-linecap="round"/>
<path d="M1.68262 21.9822L5.83301 17.8318" stroke="#00E377" stroke-width="1.5" stroke-linecap="round" stroke-linejoin="round"/>
<path d="M2.8039 17.4953L6.16977 17.4953V20.8612" stroke="#00E377" stroke-width="1.5" stroke-linecap="round" stroke-linejoin="round"/>
</svg>
