<svg width="16" height="16" viewBox="0 0 16 16" fill="none" xmlns="http://www.w3.org/2000/svg">
<g clip-path="url(#clip0_2631_2406)">
<path d="M2.28582 6.28576V12.5715M6.09496 6.28576V12.5715M9.90525 6.28576V12.5715M13.7144 6.28576V12.5715M14.7544 6.28576H1.24582C0.605819 6.28576 0.331533 5.58862 0.83439 5.25719L7.58868 0.834331C7.71338 0.760973 7.85543 0.72229 8.0001 0.72229C8.14478 0.72229 8.28683 0.760973 8.41153 0.834331L15.1658 5.25719C15.6687 5.58862 15.3944 6.28576 14.7544 6.28576ZM14.8572 12.5715H1.14296C0.99141 12.5715 0.846064 12.6317 0.738901 12.7388C0.631737 12.846 0.571533 12.9914 0.571533 13.1429V14.8572C0.571533 15.0087 0.631737 15.1541 0.738901 15.2613C0.846064 15.3684 0.99141 15.4286 1.14296 15.4286H14.8572C15.0088 15.4286 15.1541 15.3684 15.2613 15.2613C15.3685 15.1541 15.4287 15.0087 15.4287 14.8572V13.1429C15.4287 12.9914 15.3685 12.846 15.2613 12.7388C15.1541 12.6317 15.0088 12.5715 14.8572 12.5715Z" stroke="#373737" stroke-linecap="round" stroke-linejoin="round"/>
</g>
<defs>
<clipPath id="clip0_2631_2406">
<rect width="16" height="16" fill="white"/>
</clipPath>
</defs>
</svg>
