<svg width="14" height="21" viewBox="0 0 14 21" fill="none" xmlns="http://www.w3.org/2000/svg">
<g clip-path="url(#clip0_2631_1585)">
<path d="M3.56818 20.7299C5.32455 20.7299 6.75 19.2366 6.75 17.3966V14.0632H3.56818C1.81182 14.0632 0.386364 15.5566 0.386364 17.3966C0.386364 19.2366 1.81182 20.7299 3.56818 20.7299Z" fill="#0ACF83"/>
<path d="M0.386364 10.7302C0.386364 8.89018 1.81182 7.39685 3.56818 7.39685H6.75V14.0635H3.56818C1.81182 14.0635 0.386364 12.5702 0.386364 10.7302Z" fill="#A259FF"/>
<path d="M0.386364 4.06356C0.386364 2.22356 1.81182 0.730225 3.56818 0.730225H6.75V7.39689H3.56818C1.81182 7.39689 0.386364 5.90356 0.386364 4.06356Z" fill="#F24E1E"/>
<path d="M6.74987 0.730225H9.93169C11.6881 0.730225 13.1135 2.22356 13.1135 4.06356C13.1135 5.90356 11.6881 7.39689 9.93169 7.39689H6.74987V0.730225Z" fill="#FF7262"/>
<path d="M13.1135 10.7303C13.1135 12.5703 11.6881 14.0636 9.93169 14.0636C8.17533 14.0636 6.74987 12.5703 6.74987 10.7303C6.74987 8.89031 8.17533 7.39697 9.93169 7.39697C11.6881 7.39697 13.1135 8.89031 13.1135 10.7303Z" fill="#1ABCFE"/>
</g>
<defs>
<clipPath id="clip0_2631_1585">
<rect width="12.7273" height="20" fill="white" transform="translate(0.386364 0.730225)"/>
</clipPath>
</defs>
</svg>
