<svg width="21" height="21" viewBox="0 0 21 21" fill="none" xmlns="http://www.w3.org/2000/svg">
<path d="M15.9458 0.730225H4.55417C2.17704 0.730225 0.25 2.70668 0.25 5.14475V16.3157C0.25 18.7538 2.17704 20.7302 4.55417 20.7302H15.9458C18.323 20.7302 20.25 18.7538 20.25 16.3157V5.14475C20.25 2.70668 18.323 0.730225 15.9458 0.730225Z" fill="#FF61F6"/>
<path d="M10.859 14.8249H8.95321C8.81988 14.8249 8.72488 14.8198 8.67155 14.7283C8.49238 14.3702 8.31321 14.0146 8.13488 13.6616C7.95048 13.2985 7.76046 12.9383 7.56488 12.5813C7.36169 12.2118 7.16251 11.84 6.96738 11.4659H6.95405C6.77343 11.8355 6.58785 12.2025 6.39738 12.5668C6.20571 12.9334 6.01488 13.2984 5.82738 13.6608C5.64005 14.0235 5.44809 14.3836 5.25155 14.7411C5.21488 14.824 5.15238 14.8326 5.06238 14.8326H3.22488C3.18905 14.8326 3.16905 14.8471 3.16488 14.8104C3.16006 14.7768 3.16715 14.7425 3.18488 14.7138L5.77405 10.3505L3.25155 5.97618C3.22405 5.93943 3.21988 5.90951 3.23821 5.88472C3.25822 5.86065 3.28831 5.84793 3.31905 5.85054H5.21071C5.25194 5.84878 5.29307 5.85576 5.33155 5.87105C5.36348 5.88987 5.39084 5.91588 5.41155 5.94712C5.57238 6.31464 5.75155 6.68131 5.94821 7.04797C6.14488 7.41464 6.34405 7.77703 6.54488 8.13515C6.74571 8.49327 6.93155 8.85567 7.10155 9.22233H7.11488C7.29238 8.84626 7.47321 8.4796 7.65821 8.12148C7.84321 7.76336 8.03071 7.40353 8.22155 7.04113C8.41405 6.67789 8.59905 6.3172 8.77821 5.96079C8.78817 5.92642 8.80653 5.89524 8.83155 5.8702C8.86481 5.85321 8.90205 5.8461 8.93905 5.84968H10.6965C10.7377 5.83942 10.7792 5.86492 10.7899 5.90695C10.797 5.93659 10.787 5.96782 10.764 5.98729L10.7649 5.99071L8.26905 10.2155L10.939 14.7018C10.9565 14.7334 10.9607 14.7702 10.9524 14.8052C10.944 14.836 10.9132 14.8155 10.859 14.8249Z" fill="#820966"/>
<path d="M17.2043 5.10838C17.2434 5.10279 17.2796 5.13069 17.2852 5.17077C17.286 5.17758 17.286 5.18447 17.2852 5.19128V13.3255C17.2852 13.4819 17.2918 13.6511 17.3052 13.8349C17.3185 14.0178 17.3302 14.1827 17.3385 14.3297C17.3421 14.3877 17.3102 14.4419 17.2585 14.4656C16.8223 14.652 16.3681 14.7904 15.9035 14.8785C15.4783 14.9594 15.0468 15.0009 14.6143 15.0024C13.997 15.0117 13.3853 14.8803 12.8235 14.6178C12.3 14.3692 11.8624 13.9636 11.5685 13.4545C11.2454 12.8606 11.0875 12.1872 11.1118 11.5075C11.1069 10.8759 11.2644 10.2542 11.5685 9.70496C11.8818 9.14547 12.3424 8.68782 12.8977 8.38445C13.5993 8.0084 14.3888 7.83917 15.1785 7.89556C15.2502 7.89983 15.3352 7.90667 15.4335 7.91607V5.20496C15.4335 5.14086 15.4602 5.10838 15.5143 5.10838H17.2043ZM14.9352 9.48274C14.6093 9.47932 14.2877 9.55539 13.996 9.70325C13.7118 9.84855 13.4693 10.0665 13.2918 10.3366C13.0951 10.6621 12.9993 11.0412 13.0168 11.4238C13.01 11.7239 13.0578 12.0227 13.1577 12.305C13.2392 12.532 13.3673 12.7384 13.5335 12.9101C13.6928 13.0679 13.8856 13.1855 14.0968 13.2537C14.3202 13.3278 14.5537 13.365 14.7885 13.364C14.905 13.3644 15.0215 13.3599 15.1377 13.3503C15.2376 13.3432 15.3366 13.3249 15.4327 13.2956V9.53915C15.3602 9.51949 15.286 9.50581 15.211 9.49812C15.1193 9.48872 15.0277 9.48445 14.9352 9.48274Z" fill="#820966"/>
</svg>
