<svg width="13" height="14" viewBox="0 0 13 14" fill="none" xmlns="http://www.w3.org/2000/svg">
<path fill-rule="evenodd" clip-rule="evenodd" d="M7.01493 0.844904C6.96954 0.741935 6.89692 0.65473 6.80567 0.593607C6.71441 0.532483 6.60834 0.5 6.5 0.5C6.39166 0.5 6.28559 0.532483 6.19433 0.593607C6.10308 0.65473 6.03046 0.741935 5.98507 0.844904L4.35748 4.53715L0.500606 5.01619C0.392998 5.02949 0.291283 5.07478 0.207498 5.1467C0.123713 5.21862 0.0613656 5.31416 0.0278354 5.42201C-0.00569488 5.52987 -0.00900466 5.64552 0.0182977 5.75528C0.0456001 5.86504 0.102372 5.96431 0.181894 6.04135L3.03443 8.80163L2.27734 12.7907C2.25631 12.9019 2.26614 13.0171 2.30567 13.1226C2.34519 13.2281 2.41276 13.3196 2.50038 13.3862C2.588 13.4528 2.69201 13.4918 2.80011 13.4985C2.90822 13.5052 3.0159 13.4794 3.11042 13.4241L6.5 11.4378L9.88958 13.4241C9.98416 13.4796 10.092 13.5056 10.2002 13.499C10.3085 13.4924 10.4127 13.4534 10.5004 13.3866C10.5882 13.3199 10.6558 13.2282 10.6953 13.1225C10.7348 13.0168 10.7445 12.9014 10.7232 12.7901L9.96614 8.80222L12.8181 6.04135C12.8976 5.96431 12.9544 5.86504 12.9817 5.75528C13.009 5.64552 13.0057 5.52987 12.9722 5.42201C12.9386 5.31416 12.8763 5.21862 12.7925 5.1467C12.7087 5.07478 12.607 5.02949 12.4994 5.01619L8.64195 4.53655L7.01493 0.844904Z" fill="#FAC50A"/>
</svg>
